# MagicaVoxel @ Ephtracy

# group
o 

# material
mtllib basement.mtl
usemtl palette

# normals
vn -1 0 0
vn 1 0 0
vn 0 0 1
vn 0 0 -1
vn 0 -1 0
vn 0 1 0

# texcoords
vt 0.978516 0.5
vt 0.982422 0.5
vt 0.986328 0.5
vt 0.990234 0.5

# verts
v -2 0.2 -1.8
v -2 0.2 -1.9
v -2 0.2 -2
v -2 0.6 -1.8
v -2 0.6 -1.9
v -2 1.8 -1.8
v -2 1.8 -1.9
v -2 2.8 -1.8
v -2 2.8 -1.9
v -2 4 -1.8
v -2 4 -1.9
v -2 4 -2
v 2 0.2 -1.8
v 2 0.2 -1.9
v 2 0.2 -2
v 2 0.6 -1.8
v 2 0.6 -1.9
v 2 1.8 -1.8
v 2 1.8 -1.9
v 2 2.8 -1.8
v 2 2.8 -1.9
v 2 4 -1.8
v 2 4 -1.9
v 2 4 -2
v -2 0.2 -1.8
v -2 0.6 -1.8
v -2 1.8 -1.8
v -2 2.8 -1.8
v -2 4 -1.8
v 2 0.2 -1.8
v 2 0.6 -1.8
v 2 1.8 -1.8
v 2 2.8 -1.8
v 2 4 -1.8
v -2 0.2 -2
v -2 4 -2
v 2 0.2 -2
v 2 4 -2
v -2 0.2 -1.8
v 2 0.2 -1.8
v -2 0.2 -1.9
v 2 0.2 -1.9
v -2 0.2 -2
v 2 0.2 -2
v -2 4 -1.8
v 2 4 -1.8
v -2 4 -1.9
v 2 4 -1.9
v -2 4 -2
v 2 4 -2

# faces
f 4/4/1 2/4/1 1/4/1
f 5/1/1 3/1/1 2/1/1
f 5/4/1 2/4/1 4/4/1
f 6/2/1 5/2/1 4/2/1
f 7/1/1 3/1/1 5/1/1
f 7/2/1 5/2/1 6/2/1
f 8/3/1 7/3/1 6/3/1
f 9/1/1 3/1/1 7/1/1
f 9/3/1 7/3/1 8/3/1
f 10/4/1 9/4/1 8/4/1
f 11/1/1 3/1/1 9/1/1
f 11/4/1 9/4/1 10/4/1
f 12/1/1 3/1/1 11/1/1
f 13/4/2 14/4/2 16/4/2
f 14/1/2 15/1/2 17/1/2
f 16/4/2 14/4/2 17/4/2
f 16/2/2 17/2/2 18/2/2
f 17/1/2 15/1/2 19/1/2
f 18/2/2 17/2/2 19/2/2
f 18/3/2 19/3/2 20/3/2
f 19/1/2 15/1/2 21/1/2
f 20/3/2 19/3/2 21/3/2
f 20/4/2 21/4/2 22/4/2
f 21/1/2 15/1/2 23/1/2
f 22/4/2 21/4/2 23/4/2
f 23/1/2 15/1/2 24/1/2
f 30/4/3 26/4/3 25/4/3
f 31/2/3 27/2/3 26/2/3
f 31/4/3 26/4/3 30/4/3
f 32/3/3 28/3/3 27/3/3
f 32/2/3 27/2/3 31/2/3
f 33/4/3 29/4/3 28/4/3
f 33/3/3 28/3/3 32/3/3
f 34/4/3 29/4/3 33/4/3
f 35/1/4 36/1/4 37/1/4
f 37/1/4 36/1/4 38/1/4
f 41/4/5 40/4/5 39/4/5
f 42/4/5 40/4/5 41/4/5
f 43/1/5 42/1/5 41/1/5
f 44/1/5 42/1/5 43/1/5
f 45/4/6 46/4/6 47/4/6
f 47/4/6 46/4/6 48/4/6
f 47/1/6 48/1/6 49/1/6
f 49/1/6 48/1/6 50/1/6
