# MagicaVoxel @ Ephtracy

# group
o 

# material
mtllib basic-floor.mtl
usemtl palette

# normals
vn -1 0 0
vn 1 0 0
vn 0 0 1
vn 0 0 -1
vn 0 -1 0
vn 0 1 0

# texcoords
vt 0.201172 0.5
vt 0.974609 0.5
vt 0.978516 0.5
vt 0.982422 0.5
vt 0.990234 0.5

# verts
v -2 0 2
v -2 0 -1.8
v -2 0 -1.9
v -2 0 -2
v -2 0.2 2
v -2 0.2 -1.8
v -2 2.1 -1.8
v -2 2.1 -1.9
v -2 4 -1.8
v -2 4 -1.9
v -2 4 -2
v 2 0 2
v 2 0 -1.8
v 2 0 -1.9
v 2 0 -2
v 2 0.2 2
v 2 0.2 -1.8
v 2 2.1 -1.8
v 2 2.1 -1.9
v 2 4 -1.8
v 2 4 -1.9
v 2 4 -2
v -2 0 2
v -2 0.2 2
v 2 0 2
v 2 0.2 2
v -2 0.2 -1.8
v -2 2.1 -1.8
v -2 4 -1.8
v 2 0.2 -1.8
v 2 2.1 -1.8
v 2 4 -1.8
v -2 0 -2
v -2 4 -2
v 2 0 -2
v 2 4 -2
v -2 0 2
v 2 0 2
v 1.2 0 1.4
v 1.6 0 1.4
v 1.2 0 1.3
v 1.6 0 1.3
v -1.2 0 1.2
v 2.38419e-07 0 1.2
v -1.2 0 1.1
v 2.38419e-07 0 1.1
v 0.4 0 0.2
v 0.7 0 0.2
v 0.4 0 0.0999999
v 0.7 0 0.0999999
v -1.3 0 -0.7
v 0.8 0 -0.7
v -1.3 0 -0.9
v 0.8 0 -0.9
v -2 0 -1.8
v 2 0 -1.8
v -2 0 -1.9
v 2 0 -1.9
v -2 0 -2
v 2 0 -2
v -2 0.2 2
v 2 0.2 2
v 1.2 0.2 1.4
v 1.6 0.2 1.4
v 1.2 0.2 1.3
v 1.6 0.2 1.3
v -1.2 0.2 1.2
v 2.38419e-07 0.2 1.2
v -1.2 0.2 1.1
v 2.38419e-07 0.2 1.1
v 0.4 0.2 0.2
v 0.7 0.2 0.2
v 0.4 0.2 0.0999999
v 0.7 0.2 0.0999999
v -1.3 0.2 -0.7
v 0.8 0.2 -0.7
v -1.3 0.2 -0.9
v 0.8 0.2 -0.9
v -2 0.2 -1.8
v 2 0.2 -1.8
v -2 4 -1.8
v 2 4 -1.8
v -2 4 -1.9
v 2 4 -1.9
v -2 4 -2
v 2 4 -2

# faces
f 5/5/1 2/5/1 1/5/1
f 6/1/1 3/1/1 2/1/1
f 6/5/1 2/5/1 5/5/1
f 7/1/1 3/1/1 6/1/1
f 8/3/1 4/3/1 3/3/1
f 8/1/1 3/1/1 7/1/1
f 9/2/1 8/2/1 7/2/1
f 10/3/1 4/3/1 8/3/1
f 10/2/1 8/2/1 9/2/1
f 11/3/1 4/3/1 10/3/1
f 12/5/2 13/5/2 16/5/2
f 13/1/2 14/1/2 17/1/2
f 16/5/2 13/5/2 17/5/2
f 17/1/2 14/1/2 18/1/2
f 14/3/2 15/3/2 19/3/2
f 18/1/2 14/1/2 19/1/2
f 18/2/2 19/2/2 20/2/2
f 19/3/2 15/3/2 21/3/2
f 20/2/2 19/2/2 21/2/2
f 21/3/2 15/3/2 22/3/2
f 25/5/3 24/5/3 23/5/3
f 26/5/3 24/5/3 25/5/3
f 30/1/3 28/1/3 27/1/3
f 31/2/3 29/2/3 28/2/3
f 31/1/3 28/1/3 30/1/3
f 32/2/3 29/2/3 31/2/3
f 33/3/4 34/3/4 35/3/4
f 35/3/4 34/3/4 36/3/4
f 39/5/5 38/5/5 37/5/5
f 40/5/5 38/5/5 39/5/5
f 41/5/5 39/5/5 37/5/5
f 41/4/5 40/4/5 39/4/5
f 42/5/5 38/5/5 40/5/5
f 42/4/5 40/4/5 41/4/5
f 43/5/5 41/5/5 37/5/5
f 43/5/5 42/5/5 41/5/5
f 44/5/5 42/5/5 43/5/5
f 45/5/5 43/5/5 37/5/5
f 45/4/5 44/4/5 43/4/5
f 46/5/5 42/5/5 44/5/5
f 46/4/5 44/4/5 45/4/5
f 47/5/5 46/5/5 45/5/5
f 47/5/5 42/5/5 46/5/5
f 48/5/5 42/5/5 47/5/5
f 49/5/5 47/5/5 45/5/5
f 49/4/5 48/4/5 47/4/5
f 50/5/5 42/5/5 48/5/5
f 50/4/5 48/4/5 49/4/5
f 51/5/5 45/5/5 37/5/5
f 51/5/5 49/5/5 45/5/5
f 51/5/5 50/5/5 49/5/5
f 52/5/5 42/5/5 50/5/5
f 52/5/5 50/5/5 51/5/5
f 53/5/5 51/5/5 37/5/5
f 53/4/5 52/4/5 51/4/5
f 54/5/5 42/5/5 52/5/5
f 54/4/5 52/4/5 53/4/5
f 55/5/5 53/5/5 37/5/5
f 55/5/5 54/5/5 53/5/5
f 56/5/5 38/5/5 42/5/5
f 56/5/5 54/5/5 55/5/5
f 56/5/5 42/5/5 54/5/5
f 57/1/5 56/1/5 55/1/5
f 58/1/5 56/1/5 57/1/5
f 59/3/5 58/3/5 57/3/5
f 60/3/5 58/3/5 59/3/5
f 61/5/6 62/5/6 63/5/6
f 63/5/6 62/5/6 64/5/6
f 61/5/6 63/5/6 65/5/6
f 63/4/6 64/4/6 65/4/6
f 64/5/6 62/5/6 66/5/6
f 65/4/6 64/4/6 66/4/6
f 61/5/6 65/5/6 67/5/6
f 65/5/6 66/5/6 67/5/6
f 67/5/6 66/5/6 68/5/6
f 61/5/6 67/5/6 69/5/6
f 67/4/6 68/4/6 69/4/6
f 68/5/6 66/5/6 70/5/6
f 69/4/6 68/4/6 70/4/6
f 69/5/6 70/5/6 71/5/6
f 70/5/6 66/5/6 71/5/6
f 71/5/6 66/5/6 72/5/6
f 69/5/6 71/5/6 73/5/6
f 71/4/6 72/4/6 73/4/6
f 72/5/6 66/5/6 74/5/6
f 73/4/6 72/4/6 74/4/6
f 61/5/6 69/5/6 75/5/6
f 69/5/6 73/5/6 75/5/6
f 73/5/6 74/5/6 75/5/6
f 74/5/6 66/5/6 76/5/6
f 75/5/6 74/5/6 76/5/6
f 61/5/6 75/5/6 77/5/6
f 75/4/6 76/4/6 77/4/6
f 76/5/6 66/5/6 78/5/6
f 77/4/6 76/4/6 78/4/6
f 61/5/6 77/5/6 79/5/6
f 77/5/6 78/5/6 79/5/6
f 66/5/6 62/5/6 80/5/6
f 79/5/6 78/5/6 80/5/6
f 78/5/6 66/5/6 80/5/6
f 81/2/6 82/2/6 83/2/6
f 83/2/6 82/2/6 84/2/6
f 83/3/6 84/3/6 85/3/6
f 85/3/6 84/3/6 86/3/6
