# MagicaVoxel @ Ephtracy

# group
o 

# material
mtllib basic-wall2.mtl
usemtl palette

# normals
vn -1 0 0
vn 1 0 0
vn 0 0 1
vn 0 0 -1
vn 0 -1 0
vn 0 1 0

# texcoords
vt 0.193359 0.5
vt 0.248047 0.5
vt 0.306641 0.5
vt 0.974609 0.5
vt 0.978516 0.5

# verts
v -2 0.2 -1.8
v -2 0.2 -1.9
v -2 0.2 -2
v -2 2.1 -1.8
v -2 2.1 -1.9
v -2 4 -1.8
v -2 4 -1.9
v -2 4 -2
v 2 0.2 -1.8
v 2 0.2 -1.9
v 2 0.2 -2
v 2 2.1 -1.8
v 2 2.1 -1.9
v 2 4 -1.8
v 2 4 -1.9
v 2 4 -2
v -2 0.2 -1.8
v -2 2.1 -1.8
v -2 4 -1.8
v -1.8 0.4 -1.8
v -1.8 1.9 -1.8
v -1.8 2.3 -1.8
v -1.8 3.8 -1.8
v 1.8 0.4 -1.8
v 1.8 1.9 -1.8
v 1.8 2.3 -1.8
v 1.8 3.8 -1.8
v 2 0.2 -1.8
v 2 2.1 -1.8
v 2 4 -1.8
v -2 0.2 -2
v -2 4 -2
v 2 0.2 -2
v 2 4 -2
v -2 0.2 -1.8
v 2 0.2 -1.8
v -2 0.2 -1.9
v 2 0.2 -1.9
v -2 0.2 -2
v 2 0.2 -2
v -2 4 -1.8
v 2 4 -1.8
v -2 4 -1.9
v 2 4 -1.9
v -2 4 -2
v 2 4 -2

# faces
f 4/1/1 2/1/1 1/1/1
f 5/5/1 3/5/1 2/5/1
f 5/1/1 2/1/1 4/1/1
f 6/4/1 5/4/1 4/4/1
f 7/5/1 3/5/1 5/5/1
f 7/4/1 5/4/1 6/4/1
f 8/5/1 3/5/1 7/5/1
f 9/1/2 10/1/2 12/1/2
f 10/5/2 11/5/2 13/5/2
f 12/1/2 10/1/2 13/1/2
f 12/4/2 13/4/2 14/4/2
f 13/5/2 11/5/2 15/5/2
f 14/4/2 13/4/2 15/4/2
f 15/5/2 11/5/2 16/5/2
f 20/1/3 18/1/3 17/1/3
f 21/1/3 18/1/3 20/1/3
f 22/4/3 19/4/3 18/4/3
f 23/4/3 19/4/3 22/4/3
f 24/1/3 20/1/3 17/1/3
f 24/2/3 21/2/3 20/2/3
f 25/1/3 18/1/3 21/1/3
f 25/2/3 21/2/3 24/2/3
f 26/3/3 23/3/3 22/3/3
f 26/4/3 22/4/3 18/4/3
f 27/4/3 19/4/3 23/4/3
f 27/3/3 23/3/3 26/3/3
f 28/1/3 24/1/3 17/1/3
f 28/1/3 25/1/3 24/1/3
f 29/4/3 26/4/3 18/4/3
f 29/1/3 25/1/3 28/1/3
f 29/1/3 18/1/3 25/1/3
f 29/4/3 27/4/3 26/4/3
f 30/4/3 19/4/3 27/4/3
f 30/4/3 27/4/3 29/4/3
f 31/5/4 32/5/4 33/5/4
f 33/5/4 32/5/4 34/5/4
f 37/1/5 36/1/5 35/1/5
f 38/1/5 36/1/5 37/1/5
f 39/5/5 38/5/5 37/5/5
f 40/5/5 38/5/5 39/5/5
f 41/4/6 42/4/6 43/4/6
f 43/4/6 42/4/6 44/4/6
f 43/5/6 44/5/6 45/5/6
f 45/5/6 44/5/6 46/5/6
