<?xml version="1.0" encoding="utf-8"?>
<!DOCTYPE svg PUBLIC "-//W3C//DTD SVG 20010904//EN" "http://www.w3.org/TR/2001/REC-SVG-20010904/DTD/svg10.dtd">
<svg version="1.0" width="324pt" height="327.75pt" viewBox="0 0 324 327.75" preserveAspectRatio="xMidYMid meet" xmlns="http://www.w3.org/2000/svg">
  <g transform="translate(0,327.75)scale(.075,.075)" fill="#008CFF">
    <path id="path1" d="M 2975 -4166 l -30 13 -180 180 -180 180 -95 108 -95 109 -26 25 -26 26 -62 74 -62 73 35 24 35 24 8 0 8 0 61 43 62 43 143 71 144 71 55 25 55 24 40 13 40 13 25 13 25 14 74 25 75 25 7 -7 7 -8 25 -105 26 -105 15 -80 16 -80 21 -125 20 -125 9 -70 9 -70 1 -127 0 -126 -19 -44 -18 -43 -38 -45 -37 -45 -26 -12 -27 -12 -45 0 -45 0 -30 13 z M 2069 -3167 l -22 32 -30 32 -29 31 -12 20 -11 20 -42 58 -41 59 -59 66 -58 67 -63 88 -64 89 -47 75 -48 75 -47 90 -48 90 -33 100 -33 100 -27 120 -27 120 4 140 5 140 17 50 18 50 18 40 19 40 33 46 33 46 31 34 30 34 42 33 42 33 41 14 42 15 17 0 18 0 4 12 5 13 142 0 142 0 7 -11 7 -11 80 -18 80 -17 10 -7 10 -7 60 -19 60 -19 26 -21 26 -21 32 -13 31 -13 0 -8 0 -8 32 -21 33 -20 58 -58 58 -58 44 -59 44 -60 40 -80 39 -81 50 -150 51 -150 20 -75 20 -75 10 -55 10 -55 42 -200 42 -200 1 -29 1 -29 -99 -33 -98 -33 -12 -9 -11 -9 -55 -18 -55 -18 -25 -12 -25 -13 -157 -77 -158 -76 -107 -67 -108 -67 -27 -12 -27 -12 -22 32 z M 250 -2071 l 0 99 -8 4 -9 3 8 95 8 95 16 135 16 135 26 114 25 114 30 86 30 86 31 60 31 60 21 30 20 30 58 72 58 72 64 53 64 53 28 21 28 21 75 39 75 39 50 22 50 22 60 21 60 21 135 34 135 35 110 16 110 16 65 9 65 8 155 12 155 11 225 -6 225 -6 55 -9 55 -10 80 -10 80 -11 85 -15 85 -15 113 -29 113 -29 12 -10 12 -9 30 -7 30 -7 74 -37 75 -36 50 -30 51 -31 24 -20 25 -20 64 -60 64 -60 47 -70 47 -70 27 -57 27 -58 19 -58 20 -57 15 -63 16 -63 15 -122 16 -122 6 -317 6 -318 -421 0 -422 0 0 98 0 99 -25 139 -26 139 -35 134 -35 134 -34 93 -35 94 -25 45 -25 45 -13 22 -12 23 -34 50 -34 50 -61 58 -61 59 -50 33 -50 33 -30 13 -30 13 -15 11 -15 12 -91 32 -91 31 -99 16 -99 16 -110 5 -109 5 -71 -12 -70 -12 -71 -13 -71 -13 -49 -21 -49 -22 -53 -27 -53 -27 -43 -36 -44 -36 -48 -59 -49 -60 -12 -19 -12 -20 -26 -54 -27 -53 -14 -42 -15 -41 -24 -85 -24 -85 -20 -120 -20 -120 -16 -135 -15 -135 0 -127 0 -128 -375 0 -375 0 0 99 z " />
  </g>
</svg>