<?xml version="1.0" encoding="utf-8"?>
<!DOCTYPE svg PUBLIC "-//W3C//DTD SVG 20010904//EN" "http://www.w3.org/TR/2001/REC-SVG-20010904/DTD/svg10.dtd">
<svg version="1.0" width="324pt" height="327.75pt" viewBox="0 0 324 327.75" preserveAspectRatio="xMidYMid meet" xmlns="http://www.w3.org/2000/svg">
  <g transform="translate(0,327.75)scale(.075,.075)" fill="#008CFF">
    <path id="path1" d="M 174 -4091 l -41 18 -16 36 -17 35 0 1859 0 1858 20 33 20 33 35 15 34 14 311 0 311 0 19 -10 19 -10 11 -38 10 -37 0 -40 0 -40 -10 -37 -11 -37 -22 -16 -21 -15 -188 0 -188 0 0 -1680 0 -1680 191 0 190 0 19 -10 19 -10 11 -38 10 -37 0 -40 0 -40 -10 -37 -11 -37 -15 -16 -15 -15 -312 0 -312 0 -41 19 z M 3441 -4084 l -21 27 0 84 0 84 11 22 12 22 11 7 11 8 193 0 192 0 0 1680 0 1680 -190 0 -191 0 -24 25 -25 24 0 89 0 89 21 27 20 26 320 0 319 0 32 -18 32 -17 20 -28 21 -28 0 -1862 0 -1862 -18 -32 -17 -33 -27 -17 -27 -18 -327 -3 -327 -3 -21 27 z M 2805 -3831 l -40 19 -141 143 -141 144 -109 124 -109 123 -32 37 -32 36 -1 10 0 10 73 44 72 45 115 60 115 59 105 44 105 45 54 19 54 19 13 0 13 0 11 -41 11 -41 20 -91 20 -90 25 -146 25 -146 6 -135 6 -135 -26 -50 -27 -50 -22 -27 -23 -27 -28 -10 -28 -11 -22 0 -22 0 -40 19 z M 2050 -2998 l -35 42 -55 77 -55 76 -58 69 -58 69 -73 110 -73 110 -40 76 -40 75 -26 80 -26 79 -21 88 -20 88 0 125 0 126 26 66 27 67 30 43 29 44 53 53 53 53 54 17 53 17 10 9 9 9 107 0 108 0 5 -9 6 -9 52 -12 53 -13 75 -25 75 -25 21 -18 20 -19 11 0 11 0 33 -28 33 -27 59 -55 58 -54 43 -66 44 -65 29 -70 30 -70 41 -125 41 -125 25 -125 25 -125 26 -118 25 -119 0 -22 0 -22 -85 -27 -84 -28 -6 -10 -6 -9 -17 0 -17 0 -176 -84 -176 -83 -71 -46 -71 -46 -30 -16 -30 -15 -8 0 -8 0 -35 42 z M 590 -2132 l 0 79 -7 7 -7 7 2 47 3 47 15 135 15 135 20 90 20 90 24 75 25 75 38 68 37 68 54 67 54 67 76 62 76 61 73 36 72 36 52 21 52 20 125 34 126 34 130 20 130 20 145 12 145 12 190 -7 190 -6 105 -15 105 -16 78 -14 77 -15 83 -21 82 -20 10 -10 9 -9 17 0 17 0 102 -51 102 -51 70 -60 70 -61 45 -61 46 -61 28 -60 28 -60 25 -87 25 -88 15 -117 15 -118 3 -245 3 -245 -343 -3 -342 -2 0 87 0 88 -20 110 -20 110 -35 127 -35 127 -25 62 -24 61 -35 62 -35 61 -24 33 -24 32 -67 59 -66 59 -70 36 -70 37 -56 19 -57 20 -86 15 -86 15 -110 1 -110 1 -102 -20 -103 -21 -90 -47 -90 -46 -60 -66 -60 -67 -34 -65 -34 -65 -30 -105 -30 -105 -22 -135 -22 -135 -7 -170 -6 -170 -303 -3 -302 -2 0 78 z " />
  </g>
</svg>