<?xml version="1.0" encoding="utf-8"?>
<!DOCTYPE svg PUBLIC "-//W3C//DTD SVG 20010904//EN" "http://www.w3.org/TR/2001/REC-SVG-20010904/DTD/svg10.dtd">
<svg version="1.0" width="459.75pt" height="450pt" viewBox="0 0 459.75 450" preserveAspectRatio="xMidYMid meet" xmlns="http://www.w3.org/2000/svg">
  <g transform="translate(0,450)scale(.075,.075)" fill="#5FFF32">
    <path id="path1" d="M 270 -2965 l 0 2785 2650 0 2650 0 0 -2785 0 -2785 -2650 0 -2650 0 0 2785 z m 4910 0 l 0 2395 -2260 0 -2260 0 0 -2395 0 -2395 2260 0 2260 0 0 2395 z M 4005 -5181 l -40 18 -22 24 -22 24 -14 35 -15 35 -12 95 -11 95 -10 65 -11 65 -5 590 -5 590 17 205 18 205 1 460 1 460 -12 90 -12 90 -16 205 -16 205 -6 55 -5 55 -24 -45 -23 -45 -32 -95 -32 -95 -30 -59 -29 -60 -14 -40 -14 -39 -34 -51 -34 -51 -19 -17 -19 -17 -37 -16 -36 -15 -38 0 -38 0 -40 19 -41 18 -26 31 -26 31 -12 37 -13 37 7 71 7 71 45 100 45 100 32 62 32 62 72 138 71 139 17 14 17 14 53 106 53 106 17 14 17 14 24 47 24 48 10 6 11 7 23 51 23 52 34 32 34 32 37 15 37 16 39 0 38 0 50 -24 49 -23 47 -17 47 -17 71 -76 71 -77 66 -98 65 -99 27 -32 27 -32 59 -89 58 -89 27 -31 26 -31 89 -135 89 -135 33 -42 34 -42 14 -35 15 -35 0 -36 0 -36 -15 -37 -16 -37 -22 -24 -22 -24 -40 -18 -40 -19 -40 0 -40 0 -40 19 -41 18 -40 49 -40 49 -99 149 -99 150 -26 30 -26 31 -49 75 -49 75 -19 25 -19 25 7 -160 7 -160 14 -150 13 -150 13 -105 13 -105 -1 -485 0 -485 -19 -205 -18 -205 6 -560 6 -560 10 -65 10 -65 12 -101 12 -100 -12 -37 -13 -38 -26 -31 -26 -31 -41 -18 -40 -19 -40 0 -40 0 -40 19 z M 1805 -5151 l -41 18 -27 32 -27 33 0 8 0 9 -42 19 -43 19 -22 24 -22 24 -31 75 -31 75 -21 59 -21 60 -21 32 -21 32 -30 52 -30 52 -22 31 -22 32 -54 80 -55 80 -17 34 -17 35 -34 47 -33 47 -41 79 -41 78 -39 65 -39 65 -35 66 -35 66 -25 31 -26 30 -15 36 -15 35 0 36 0 36 15 37 16 37 22 24 22 24 40 18 40 19 48 0 48 0 37 -15 37 -16 23 -22 24 -22 20 -39 20 -39 36 -51 35 -51 71 -85 71 -85 21 -31 22 -30 36 -71 35 -71 26 -37 25 -38 0 449 0 449 11 150 10 150 21 240 22 240 7 165 8 165 7 342 6 341 -16 95 -16 95 -20 43 -20 44 0 38 0 38 15 37 16 37 22 24 22 24 40 18 40 19 38 0 38 0 37 -16 37 -15 23 -22 23 -22 30 -52 30 -52 25 -148 26 -148 -7 -380 -6 -380 -8 -160 -7 -160 -21 -240 -22 -240 -10 -150 -11 -150 0 -484 0 -485 25 35 24 34 43 58 43 58 100 109 101 109 39 26 40 27 81 84 81 84 44 20 44 20 40 0 40 0 40 -19 40 -18 22 -24 22 -24 16 -37 15 -37 0 -35 0 -36 -15 -38 -16 -38 -110 -107 -110 -108 -27 -17 -27 -17 -80 -87 -80 -87 -26 -33 -26 -33 -36 -51 -35 -51 -22 -44 -22 -44 -11 -13 -11 -13 -23 -57 -24 -57 -30 -80 -30 -80 -14 -50 -15 -50 -14 -77 -15 -77 -14 -28 -15 -28 -24 -22 -23 -22 -37 -16 -37 -15 -38 0 -38 0 -40 19 z " />
  </g>
</svg>