<?xml version="1.0" encoding="utf-8"?>
<!DOCTYPE svg PUBLIC "-//W3C//DTD SVG 20010904//EN" "http://www.w3.org/TR/2001/REC-SVG-20010904/DTD/svg10.dtd">
<svg version="1.0" width="600pt" height="450pt" viewBox="0 0 600 450" preserveAspectRatio="xMidYMid meet" xmlns="http://www.w3.org/2000/svg">
  <g transform="translate(0,450)scale(.075,.075)" fill="#FCFFFD">
    <path id="path1" d="M 3100 -3520 l 0 1410 -765 0 -765 0 0 300 0 300 -365 0 -365 0 0 585 0 585 3315 0 3315 0 0 -585 0 -585 -415 0 -415 0 0 -300 0 -300 -755 0 -755 0 0 -1410 0 -1410 -1015 0 -1015 0 0 1410 z m 1790 -1015 l 0 75 -790 0 -790 0 0 -75 0 -75 790 0 790 0 0 75 z m 30 830 l 0 55 -795 0 -795 0 0 -55 0 -55 795 0 795 0 0 55 z m -30 905 l 0 80 -785 0 -785 0 0 -80 0 -80 785 0 785 0 0 80 z m 1550 1015 l 0 155 -2325 0 -2325 0 0 -155 0 -155 2325 0 2325 0 0 155 z m 920 575 l 0 150 -3190 0 -3190 0 0 -150 0 -150 3190 0 3190 0 0 150 z " />
  </g>
</svg>