<?xml version="1.0" encoding="utf-8"?>
<!DOCTYPE svg PUBLIC "-//W3C//DTD SVG 20010904//EN" "http://www.w3.org/TR/2001/REC-SVG-20010904/DTD/svg10.dtd">
<svg version="1.0" width="600pt" height="450pt" viewBox="0 0 600 450" preserveAspectRatio="xMidYMid meet" xmlns="http://www.w3.org/2000/svg">
  <g transform="translate(0,450)scale(.075,.075)" fill="#6BC1FF">
    <path id="path1" d="M 0 -3000 l 0 3000 4000 0 4000 0 0 -3000 0 -3000 -4000 0 -4000 0 0 3000 z m 6930 -1380 l 0 340 -1168 2 -1167 3 -6 65 -7 65 -12 45 -12 45 -25 48 -24 48 -45 58 -44 58 -63 45 -62 45 -45 26 -45 26 -85 26 -85 27 -11 14 -11 14 -180 0 -181 0 -28 -15 -29 -15 -17 0 -17 0 -86 -31 -86 -31 -72 -47 -72 -48 -60 -64 -60 -64 -38 -75 -38 -75 -12 -95 -13 -95 -1102 -3 -1102 -2 0 -340 0 -340 3055 0 3055 0 0 340 z m 0 2810 l 0 340 -3055 0 -3055 0 0 -340 0 -340 3055 0 3055 0 0 340 z " />
  </g>
</svg>