<?xml version="1.0" encoding="utf-8"?>
<!DOCTYPE svg PUBLIC "-//W3C//DTD SVG 20010904//EN" "http://www.w3.org/TR/2001/REC-SVG-20010904/DTD/svg10.dtd">
<svg version="1.0" width="600pt" height="450pt" viewBox="0 0 600 450" preserveAspectRatio="xMidYMid meet" xmlns="http://www.w3.org/2000/svg">
  <g transform="translate(0,450)scale(.075,.075)" fill="#75B7FF">
    <path id="path1" d="M 810 -4380 l 0 350 1104 0 1103 0 6 68 6 68 18 56 19 56 35 57 34 57 54 55 53 55 74 48 73 48 84 30 84 31 36 6 37 7 0 9 0 9 200 0 200 0 0 -12 0 -13 91 -29 90 -29 59 -36 60 -36 50 -40 51 -40 44 -57 45 -58 25 -50 25 -50 15 -62 15 -63 0 -43 0 -42 1170 0 1170 0 0 -350 0 -350 -3065 0 -3065 0 0 350 z M 810 -1570 l 0 350 3065 0 3065 0 0 -350 0 -350 -3065 0 -3065 0 0 350 z " />
  </g>
</svg>