<?xml version="1.0" encoding="utf-8"?>
<!DOCTYPE svg PUBLIC "-//W3C//DTD SVG 20010904//EN" "http://www.w3.org/TR/2001/REC-SVG-20010904/DTD/svg10.dtd">
<svg version="1.0" width="386.25pt" height="373.5pt" viewBox="0 0 386.25 373.5" preserveAspectRatio="xMidYMid meet" xmlns="http://www.w3.org/2000/svg">
  <g transform="translate(0,373.5)scale(.075,.075)" fill="#FF9F51">
    <path id="path1" d="M 2021 -3687 l -244 962 -5 13 -4 12 992 0 992 0 -4 -12 -5 -13 -244 -962 -244 -963 -495 0 -495 0 -244 963 z M 905 -2568 l -4 13 -291 1155 -291 1155 -5 18 -5 17 1196 0 1195 0 -7 -27 -6 -28 -292 -1155 -292 -1155 -597 -3 -597 -2 -4 12 z M 3091 -1412 l -214 1157 -5 18 -4 17 872 0 872 0 -4 -17 -5 -18 -214 -1157 -214 -1158 -435 0 -435 0 -214 1158 z " />
  </g>
</svg>