<?xml version="1.0" encoding="utf-8"?>
<!DOCTYPE svg PUBLIC "-//W3C//DTD SVG 20010904//EN" "http://www.w3.org/TR/2001/REC-SVG-20010904/DTD/svg10.dtd">
<svg version="1.0" width="459.75pt" height="450pt" viewBox="0 0 459.75 450" preserveAspectRatio="xMidYMid meet" xmlns="http://www.w3.org/2000/svg">
  <g transform="translate(0,450)scale(.075,.075)" fill="#FF60E2">
    <path id="path1" d="M 1875 -5121 l -40 18 -22 24 -22 24 -16 37 -15 37 0 31 0 30 11 47 11 48 10 38 9 38 55 65 56 65 29 87 30 87 -4 115 -3 115 -21 110 -21 110 -20 52 -20 52 -23 31 -24 31 -25 22 -25 22 -44 44 -43 44 -19 41 -18 41 -61 65 -60 65 0 7 0 7 -45 55 -44 55 -41 78 -41 78 -19 35 -19 35 -46 101 -45 100 0 19 0 19 -24 80 -25 81 -16 65 -16 65 -34 115 -34 115 -16 65 -16 65 -24 80 -23 80 -7 45 -7 45 -14 53 -14 52 -14 52 -15 53 -7 50 -7 50 -12 36 -13 35 8 245 8 244 16 53 16 52 16 58 16 57 35 75 34 75 52 53 52 52 55 21 55 22 80 10 80 9 480 8 480 7 110 12 110 13 215 -5 215 -6 163 -10 162 -11 285 -45 285 -45 50 -15 50 -15 48 -6 47 -7 39 -13 39 -14 39 0 39 0 99 -15 100 -15 91 -11 92 -11 51 -18 51 -17 50 -26 50 -25 20 -23 20 -24 29 -43 29 -42 14 -53 14 -52 6 -333 6 -333 -12 -102 -12 -102 -10 -75 -10 -75 -80 -245 -81 -245 -40 -90 -40 -90 -65 -130 -64 -130 -39 -65 -39 -65 -31 -55 -31 -55 -26 -45 -26 -45 -26 -40 -26 -40 -41 -50 -42 -50 -43 -65 -44 -65 -30 -39 -30 -39 -32 -56 -32 -56 -28 -55 -28 -55 0 -115 0 -115 28 -82 29 -83 46 -79 47 -78 47 -69 46 -69 46 -45 46 -44 20 -54 20 -53 0 -37 0 -37 -19 -40 -18 -41 -32 -27 -32 -26 -37 -12 -37 -11 -110 11 -110 10 -490 -9 -490 -10 -405 -10 -405 -10 -135 0 -135 0 -40 19 z m 1215 420 l 95 6 9 60 10 60 -63 180 -63 180 -15 65 -14 65 -9 65 -9 65 -1 183 0 183 21 41 21 42 19 55 19 54 0 31 0 31 19 60 20 60 15 56 16 56 0 39 0 39 15 85 15 85 0 41 0 41 14 39 13 39 8 54 7 54 34 100 34 101 0 22 0 22 88 172 87 172 23 41 22 41 0 21 0 21 40 119 40 119 -3 2 -3 3 -350 18 -349 17 -777 0 -778 1 0 -5 -1 -5 45 -140 44 -140 56 -170 56 -170 14 -45 14 -45 37 -85 37 -85 13 -35 13 -36 42 -84 42 -84 14 -36 13 -35 31 -75 31 -75 13 -15 13 -15 32 -95 31 -95 40 -57 39 -57 37 -73 36 -72 70 -83 69 -83 9 0 10 0 57 -52 58 -52 18 -41 19 -40 15 -40 14 -40 13 -73 13 -72 -13 -72 -12 -73 -12 -30 -12 -30 -6 -127 -5 -128 -45 -37 -44 -36 -24 -51 -24 -51 0 -37 0 -38 362 1 363 1 95 7 z " />
  </g>
</svg>