<?xml version="1.0" encoding="utf-8"?>
<!DOCTYPE svg PUBLIC "-//W3C//DTD SVG 20010904//EN" "http://www.w3.org/TR/2001/REC-SVG-20010904/DTD/svg10.dtd">
<svg version="1.0" width="459.75pt" height="450pt" viewBox="0 0 459.75 450" preserveAspectRatio="xMidYMid meet" xmlns="http://www.w3.org/2000/svg">
  <g transform="translate(0,450)scale(.075,.075)" fill="#F760FF">
    <path id="path1" d="M 0 -3000 l 0 3000 3065 0 3065 0 0 -3000 0 -3000 -3065 0 -3065 0 0 3000 z m 3090 -2120 l 395 10 310 -1 310 0 71 -2 71 -2 43 30 43 30 18 43 19 44 0 43 0 44 -21 53 -21 53 -33 28 -34 27 -47 68 -47 67 -55 89 -54 90 -29 79 -29 78 0 126 0 126 46 86 46 86 57 80 58 80 33 50 34 50 41 50 42 50 50 85 51 85 72 125 73 125 57 115 57 115 46 105 45 105 76 231 76 231 21 164 21 164 -5 355 -5 355 -16 55 -16 55 -45 60 -45 60 -38 20 -38 20 -70 23 -69 23 -155 21 -155 20 -80 8 -80 7 -25 10 -25 10 -47 7 -48 6 -50 15 -50 15 -285 45 -285 45 -132 10 -133 10 -250 7 -250 6 -115 -12 -115 -12 -505 -10 -505 -10 -57 -9 -58 -10 -42 -16 -43 -17 -58 -56 -59 -56 -30 -65 -30 -65 -34 -110 -34 -110 -11 -255 -10 -256 16 -43 15 -44 0 -21 0 -22 25 -95 26 -94 19 -92 20 -93 24 -87 25 -88 56 -205 57 -205 29 -99 29 -99 0 -18 0 -18 36 -83 37 -83 65 -125 65 -125 49 -61 48 -62 0 -9 0 -9 56 -54 56 -55 23 -50 23 -50 83 -80 82 -79 28 -61 28 -61 20 -110 20 -109 7 -111 6 -112 -31 -94 -31 -94 -55 -65 -54 -64 -22 -88 -21 -88 4 -49 5 -50 27 -40 27 -41 42 -20 42 -19 395 5 395 5 395 10 z M 2278 -4704 l -8 7 0 29 0 29 30 57 30 57 38 30 39 30 7 127 6 127 11 28 11 28 13 78 14 78 -15 82 -16 82 -30 72 -30 72 -56 49 -57 49 -12 4 -13 4 -66 80 -66 79 -35 71 -35 70 -43 60 -42 60 -28 85 -28 85 -23 40 -23 40 -44 110 -44 110 -35 70 -35 70 -53 124 -52 125 -107 330 -108 331 -7 23 -7 22 805 0 806 0 318 -16 317 -16 5 -4 4 -5 -37 -112 -37 -113 0 -19 0 -20 -110 -216 -110 -217 0 -19 0 -19 -34 -101 -34 -100 -7 -54 -8 -54 -13 -39 -14 -39 0 -41 0 -41 -15 -85 -15 -85 0 -42 0 -42 -35 -115 -35 -116 0 -28 0 -29 -19 -54 -19 -55 -21 -42 -21 -41 0 -199 0 -198 16 -95 15 -94 70 -206 70 -207 -7 -51 -7 -52 -21 -11 -21 -12 -430 -4 -430 -4 -7 8 z " />
  </g>
</svg>