<?xml version="1.0" encoding="utf-8"?>
<!DOCTYPE svg PUBLIC "-//W3C//DTD SVG 20010904//EN" "http://www.w3.org/TR/2001/REC-SVG-20010904/DTD/svg10.dtd">
<svg version="1.0" width="600pt" height="450pt" viewBox="0 0 600 450" preserveAspectRatio="xMidYMid meet" xmlns="http://www.w3.org/2000/svg">
  <g transform="translate(0,450)scale(.075,.075)" fill="#FFD596">
    <path id="path1" d="M 0 -3000 l 0 3000 4000 0 4000 0 0 -3000 0 -3000 -4000 0 -4000 0 0 3000 z m 6485 20 l 0 2115 -2525 0 -2525 0 -3 -2105 -2 -2105 5 -13 4 -12 2523 2 2523 3 0 2115 z M 2981 -4308 l -9 23 -257 780 -257 780 -205 625 -205 625 -5 8 -4 7 1417 -2 1417 -3 17 -50 18 -50 394 -1200 395 -1200 61 -183 60 -182 -1414 0 -1414 0 -9 22 z " />
  </g>
</svg>