<?xml version="1.0" encoding="utf-8"?>
<!DOCTYPE svg PUBLIC "-//W3C//DTD SVG 20010904//EN" "http://www.w3.org/TR/2001/REC-SVG-20010904/DTD/svg10.dtd">
<svg version="1.0" width="324pt" height="327.75pt" viewBox="0 0 324 327.75" preserveAspectRatio="xMidYMid meet" xmlns="http://www.w3.org/2000/svg">
  <g transform="translate(0,327.75)scale(.075,.075)" fill="#FFFF0A">
    <path id="path1" d="M 1860 -3518 l -213 673 -24 77 -24 78 -784 2 -784 3 633 470 633 470 -13 45 -14 45 -228 717 -229 717 17 -12 17 -12 612 -455 612 -455 9 0 9 0 588 437 588 437 41 30 42 31 -46 -143 -45 -142 -197 -619 -197 -620 633 -470 633 -471 -783 -3 -783 -2 -238 -750 -239 -750 -6 0 -6 0 -214 672 z " />
  </g>
</svg>