<?xml version="1.0" encoding="utf-8"?>
<!DOCTYPE svg PUBLIC "-//W3C//DTD SVG 20010904//EN" "http://www.w3.org/TR/2001/REC-SVG-20010904/DTD/svg10.dtd">
<svg version="1.0" width="459.75pt" height="450pt" viewBox="0 0 459.75 450" preserveAspectRatio="xMidYMid meet" xmlns="http://www.w3.org/2000/svg">
  <g transform="translate(0,450)scale(.075,.075)" fill="#00FF08">
    <path id="path1" d="M 0 -3000 l 0 3000 3065 0 3065 0 0 -3000 0 -3000 -3065 0 -3065 0 0 3000 z m 5570 35 l 0 2785 -2650 0 -2650 0 0 -2785 0 -2785 2650 0 2650 0 0 2785 z M 660 -2965 l 0 2395 2260 0 2260 0 0 -2395 0 -2395 -2260 0 -2260 0 0 2395 z m 3505 -2216 l 41 18 27 32 26 32 12 38 11 38 -22 164 -22 164 -5 570 -6 570 17 190 17 190 -4 550 -4 550 -16 135 -17 135 -11 180 -11 180 4 38 3 37 80 -114 80 -115 114 -168 114 -168 36 -44 36 -44 40 -18 40 -19 40 0 40 0 40 19 40 18 22 24 22 24 16 37 15 37 0 34 0 35 -16 38 -16 38 -33 40 -32 41 -102 150 -102 150 -89 125 -89 125 -79 115 -79 115 -67 72 -67 72 -37 12 -37 12 -57 28 -57 29 -39 0 -40 0 -38 -16 -39 -16 -33 -31 -34 -32 -23 -51 -23 -51 -11 -7 -11 -7 -24 -48 -24 -47 -17 -14 -17 -14 -53 -106 -53 -106 -16 -13 -16 -13 -109 -212 -109 -211 -40 -91 -40 -90 -7 -75 -7 -75 16 -39 17 -40 22 -24 22 -24 40 -18 40 -19 40 0 40 0 42 19 42 19 35 49 35 48 15 30 15 30 44 100 45 100 26 80 27 80 23 44 23 45 7 -55 6 -54 15 -195 15 -195 16 -120 16 -120 -6 -470 -7 -470 -15 -160 -14 -160 1 -315 1 -315 8 -320 7 -320 17 -125 17 -125 15 -40 16 -40 21 -24 22 -24 40 -18 40 -19 40 0 40 0 40 19 z m -2207 26 l 37 16 23 22 24 22 13 25 13 25 17 85 17 85 20 65 20 65 45 115 46 115 12 15 12 15 32 60 31 60 51 67 50 68 104 102 104 103 112 105 111 105 19 40 19 40 0 38 0 38 -15 37 -16 37 -22 24 -22 24 -40 18 -40 19 -40 0 -40 0 -50 -24 -50 -23 -69 -77 -69 -78 -49 -32 -48 -33 -91 -99 -92 -99 -74 -100 -75 -100 5 580 4 580 17 165 16 165 15 180 15 180 11 487 11 488 -27 152 -27 152 -25 45 -26 46 -21 24 -21 23 -43 19 -44 19 -36 0 -37 0 -40 -19 -40 -18 -22 -24 -22 -24 -16 -37 -15 -37 0 -36 0 -36 20 -47 20 -47 15 -80 15 -80 0 -173 0 -173 -10 -322 -10 -322 -20 -215 -20 -215 -15 -200 -15 -200 0 -450 0 -450 -21 30 -20 30 -41 80 -41 80 -26 35 -26 35 -81 97 -80 97 -35 61 -34 62 -25 30 -24 31 -41 18 -40 19 -50 0 -50 0 -40 -19 -40 -18 -22 -24 -22 -24 -16 -37 -15 -37 0 -34 0 -35 16 -38 16 -39 22 -25 23 -25 58 -105 59 -105 52 -95 52 -95 49 -78 48 -78 74 -112 75 -112 62 -103 63 -103 7 -22 7 -22 44 -110 44 -110 22 -24 22 -23 43 -19 42 -18 0 -10 0 -9 27 -33 27 -32 41 -18 40 -19 38 0 38 0 37 15 z " />
  </g>
</svg>