<?xml version="1.0" encoding="utf-8"?>
<!DOCTYPE svg PUBLIC "-//W3C//DTD SVG 20010904//EN" "http://www.w3.org/TR/2001/REC-SVG-20010904/DTD/svg10.dtd">
<svg version="1.0" width="459.75pt" height="450pt" viewBox="0 0 459.75 450" preserveAspectRatio="xMidYMid meet" xmlns="http://www.w3.org/2000/svg">
  <g transform="translate(0,450)scale(.075,.075)" fill="#FDFFFC">
    <path id="path1" d="M 2910 -5311 l -85 18 -78 33 -78 32 -72 47 -72 47 -64 60 -64 59 -57 76 -56 76 -42 84 -41 85 -25 88 -26 87 -11 92 -11 92 6 96 6 96 24 95 24 96 30 71 30 72 48 77 48 77 75 78 74 77 -4 4 -4 3 -90 58 -90 57 -76 77 -76 77 -42 72 -43 71 -26 78 -27 78 -3 1363 -2 1362 1105 0 1105 0 -2 -1362 -3 -1363 -27 -78 -26 -78 -43 -72 -43 -72 -80 -80 -81 -81 -93 -58 -92 -59 53 -56 53 -56 41 -55 41 -55 40 -75 40 -75 26 -76 25 -76 17 -94 16 -94 -5 -130 -5 -130 -25 -97 -26 -97 -45 -94 -45 -93 -59 -80 -59 -79 -61 -57 -62 -57 -77 -50 -76 -51 -76 -31 -76 -32 -90 -18 -90 -19 -105 1 -105 0 -85 18 z " />
  </g>
</svg>