<?xml version="1.0" encoding="utf-8"?>
<!DOCTYPE svg PUBLIC "-//W3C//DTD SVG 20010904//EN" "http://www.w3.org/TR/2001/REC-SVG-20010904/DTD/svg10.dtd">
<svg version="1.0" width="459.75pt" height="450pt" viewBox="0 0 459.75 450" preserveAspectRatio="xMidYMid meet" xmlns="http://www.w3.org/2000/svg">
  <g transform="translate(0,450)scale(.075,.075)" fill="#FCFFFF">
    <path id="path1" d="M 0 -3000 l 0 3000 3065 0 3065 0 0 -3000 0 -3000 -3065 0 -3065 0 0 3000 z m 3295 -2310 l 97 20 77 33 77 34 80 53 79 54 53 50 53 49 63 86 63 86 42 89 41 89 25 91 24 91 7 135 6 135 -16 91 -16 90 -29 86 -29 87 -38 68 -38 68 -44 60 -45 60 -49 51 -49 51 98 63 98 62 68 67 68 66 50 82 50 82 25 73 26 73 5 1367 6 1368 -1108 0 -1108 0 6 -1368 5 -1367 26 -73 25 -73 50 -82 50 -82 68 -66 68 -66 90 -58 90 -57 4 -4 4 -4 -74 -78 -75 -77 -47 -76 -47 -76 -29 -69 -29 -69 -25 -100 -26 -100 -6 -100 -7 -100 11 -85 12 -85 26 -90 26 -90 44 -90 45 -89 58 -76 57 -75 55 -52 56 -52 72 -47 73 -47 77 -33 77 -33 84 -20 84 -19 106 -1 107 -1 97 20 z " />
  </g>
</svg>