{"asset":{"version":"2.0","generator":"Blockbench 5.1.4 glTF exporter"},"scenes":[{"nodes":[2],"name":"blockbench_export"}],"scene":0,"nodes":[{"rotation":[0,-0.7071067811865475,0,0.7071067811865476],"translation":[0,0.5,0],"name":"fire"},{"rotation":[0,-1,0,6.123233995736766e-17],"name":"root","children":[0]},{"rotation":[0,-1,0,6.123233995736766e-17],"name":"root","mesh":0,"children":[1],"skin":0}],"bufferViews":[{"buffer":0,"byteOffset":0,"byteLength":4944,"target":34962,"byteStride":12},{"buffer":0,"byteOffset":4944,"byteLength":4944,"target":34962,"byteStride":12},{"buffer":0,"byteOffset":9888,"byteLength":3296,"target":34962,"byteStride":8},{"buffer":0,"byteOffset":13184,"byteLength":3296,"target":34962,"byteStride":8},{"buffer":0,"byteOffset":16480,"byteLength":6592,"target":34962,"byteStride":16},{"buffer":0,"byteOffset":23072,"byteLength":1020,"target":34963},{"buffer":0,"byteOffset":24092,"byteLength":128},{"buffer":0,"byteOffset":24220,"byteLength":12},{"buffer":0,"byteOffset":24232,"byteLength":36},{"buffer":0,"byteOffset":24268,"byteLength":12},{"buffer":0,"byteOffset":24280,"byteLength":36},{"buffer":0,"byteOffset":24316,"byteLength":12},{"buffer":0,"byteOffset":24328,"byteLength":36}],"buffers":[{"byteLength":24364,"uri":"data:application/octet-stream;base64,"}],"accessors":[{"bufferView":0,"componentType":5126,"count":412,"max":[0.5,1.0031249523162842,0.5],"min":[-0.5,0,-0.5],"type":"VEC3"},{"bufferView":1,"componentType":5126,"count":412,"max":[1,1,1],"min":[-1,-1,-1],"type":"VEC3"},{"bufferView":2,"componentType":5126,"count":412,"max":[0.828125,0.78125],"min":[0,0],"type":"VEC2"},{"bufferView":3,"componentType":5123,"count":412,"max":[0,1,0,0],"min":[0,0,0,0],"type":"VEC4"},{"bufferView":4,"componentType":5126,"count":412,"max":[0,1,0,0],"min":[0,1,0,0],"type":"VEC4"},{"bufferView":5,"componentType":5123,"count":510,"max":[411],"min":[0],"type":"SCALAR"},{"bufferView":6,"componentType":5126,"count":2,"max":[-3.445092901835481e-16,0,1,0,0,1,0,0,1.2246468525851679e-16,0,-3.445092901835481e-16,0,0,0,0,1],"min":[-1,0,-1.2246468525851679e-16,0,0,1,0,0,-1,0,-1,0,0,-0.5,0,1],"type":"MAT4"},{"bufferView":7,"componentType":5126,"count":3,"max":[0.9583333134651184],"min":[0],"type":"SCALAR"},{"bufferView":8,"componentType":5126,"count":3,"max":[0,0.5,0],"min":[0,0.375,0],"type":"VEC3"},{"bufferView":9,"componentType":5126,"count":3,"max":[0.5],"min":[0.0833333358168602],"type":"SCALAR"},{"bufferView":10,"componentType":5126,"count":3,"max":[0,0.625,0],"min":[0,0.5,0],"type":"VEC3"},{"bufferView":11,"componentType":5126,"count":3,"max":[0.5],"min":[0.0833333358168602],"type":"SCALAR"},{"bufferView":12,"componentType":5126,"count":3,"max":[2,2,2],"min":[1,1,1],"type":"VEC3"}],"materials":[{"pbrMetallicRoughness":{"metallicFactor":0,"roughnessFactor":1,"baseColorTexture":{"index":0}},"alphaMode":"MASK","alphaCutoff":0.05,"doubleSided":true}],"textures":[{"sampler":0,"source":0,"name":"firepit.png"}],"samplers":[{"magFilter":9728,"minFilter":9728,"wrapS":33071,"wrapT":33071}],"images":[{"mimeType":"image/png","uri":"data:image/png;base64,"}],"meshes":[{"primitives":[{"mode":4,"attributes":{"POSITION":0,"NORMAL":1,"TEXCOORD_0":2,"JOINTS_0":3,"WEIGHTS_0":4},"indices":5,"material":0}]}],"skins":[{"inverseBindMatrices":6,"joints":[1,0],"skeleton":1}],"animations":[{"name":"idle-loop","samplers":[{"input":7,"output":8,"interpolation":"LINEAR"}],"channels":[{"sampler":0,"target":{"node":0,"path":"translation"}}]},{"name":"work-loop","samplers":[{"input":9,"output":10,"interpolation":"LINEAR"},{"input":11,"output":12,"interpolation":"LINEAR"}],"channels":[{"sampler":0,"target":{"node":0,"path":"translation"}},{"sampler":1,"target":{"node":0,"path":"scale"}}]}]}