# MagicaVoxel @ Ephtracy

# group
o 

# material
mtllib hotel1.mtl
usemtl palette

# normals
vn -1 0 0
vn 1 0 0
vn 0 0 1
vn 0 0 -1
vn 0 -1 0
vn 0 1 0

# texcoords
vt 0.341797 0.5
vt 0.373047 0.5
vt 0.537109 0.5
vt 0.873047 0.5
vt 0.958984 0.5
vt 0.966797 0.5
vt 0.982422 0.5
vt 0.990234 0.5

# verts
v -2 0 2
v -2 0 -2
v -2 0.1 2
v -2 0.1 -2
v -2 0.2 2
v -2 0.2 -1.9
v -2 0.2 -2
v -2 4 2
v -2 4 -1.9
v -2 4 -2
v -1.4 1.1 -1.8
v -1.4 1.1 -1.9
v -1.4 3.4 -1.8
v -1.4 3.4 -1.9
v -1.2 0.2 0.8
v -1.2 0.2 0.7
v -1.2 0.2 0.5
v -1.2 0.2 0.4
v -1.2 0.6 0.7
v -1.2 0.6 0.5
v -1.2 0.7 0.7
v -1.2 0.7 0.5
v -1.2 1 0.7
v -1.2 1 0.5
v -1.2 1.1 0.8
v -1.2 1.1 0.4
v -0.9 0.2 0.8
v -0.9 0.2 0.7
v -0.9 0.2 0.5
v -0.9 0.2 0.4
v -0.9 0.6 0.8
v -0.9 0.6 0.7
v -0.9 0.6 0.5
v -0.9 0.6 0.4
v 0.9 1.1 -1.8
v 0.9 1.1 -1.9
v 0.9 1.4 -1.9
v 0.9 1.6 -1.9
v 0.9 3.2 -1.9
v 0.9 3.4 -1.8
v 0.9 3.4 -1.9
v 1.3 1.6 -1.9
v 1.3 1.6 -2
v 1.3 3.2 -1.9
v 1.3 3.2 -2
v 1.9 0.2 2
v 1.9 0.2 -1.9
v 1.9 4 2
v 1.9 4 -1.9
v -1.9 0.2 2
v -1.9 0.2 -1.9
v -1.9 4 2
v -1.9 4 -1.9
v -1.2 1.6 -1.9
v -1.2 1.6 -2
v -1.2 3.2 -1.9
v -1.2 3.2 -2
v -1.1 0.2 0.8
v -1.1 0.2 0.7
v -1.1 0.2 0.5
v -1.1 0.2 0.4
v -1.1 0.6 0.8
v -1.1 0.6 0.7
v -1.1 0.6 0.5
v -1.1 0.6 0.4
v -1.1 0.7 0.8
v -1.1 0.7 0.7
v -1.1 0.7 0.5
v -1.1 0.7 0.4
v -1.1 1 0.7
v -1.1 1 0.5
v -1.1 1.1 0.8
v -1.1 1.1 0.4
v -0.8 0.2 0.8
v -0.8 0.2 0.7
v -0.8 0.2 0.5
v -0.8 0.2 0.4
v -0.8 0.6 0.7
v -0.8 0.6 0.5
v -0.8 0.7 0.8
v -0.8 0.7 0.4
v -0.8 1.1 -1.8
v -0.8 1.1 -1.9
v -0.8 1.4 -1.9
v -0.8 1.6 -1.9
v -0.8 3.2 -1.9
v -0.8 3.4 -1.8
v -0.8 3.4 -1.9
v 1.5 1.1 -1.8
v 1.5 1.1 -1.9
v 1.5 3.4 -1.8
v 1.5 3.4 -1.9
v 2 0 2
v 2 0 -2
v 2 0.1 2
v 2 0.1 -2
v 2 0.2 2
v 2 0.2 -1.9
v 2 0.2 -2
v 2 4 2
v 2 4 -1.9
v 2 4 -2
v -2 0 2
v -2 0.1 2
v -2 0.2 2
v -2 4 2
v -1.9 0.2 2
v -1.9 4 2
v 1.9 0.2 2
v 1.9 4 2
v 2 0 2
v 2 0.1 2
v 2 0.2 2
v 2 4 2
v -1.2 0.2 0.8
v -1.2 1.1 0.8
v -1.1 0.2 0.8
v -1.1 0.6 0.8
v -1.1 0.7 0.8
v -1.1 1.1 0.8
v -0.9 0.2 0.8
v -0.9 0.6 0.8
v -0.8 0.2 0.8
v -0.8 0.7 0.8
v -1.2 0.2 0.5
v -1.2 0.6 0.5
v -1.2 0.7 0.5
v -1.2 1 0.5
v -1.1 0.2 0.5
v -1.1 0.6 0.5
v -1.1 0.7 0.5
v -1.1 1 0.5
v -0.9 0.2 0.5
v -0.9 0.6 0.5
v -0.8 0.2 0.5
v -0.8 0.6 0.5
v -1.4 1.1 -1.8
v -1.4 3.4 -1.8
v -1.1 1.7 -1.8
v -1.1 3.3 -1.8
v -1 1.7 -1.8
v -1 3.3 -1.8
v -0.8 1.1 -1.8
v -0.8 3.4 -1.8
v 0.9 1.1 -1.8
v 0.9 3.4 -1.8
v 1.2 1.6 -1.8
v 1.2 3.3 -1.8
v 1.3 1.6 -1.8
v 1.3 3.3 -1.8
v 1.5 1.1 -1.8
v 1.5 3.4 -1.8
v -1.9 0.2 -1.9
v -1.9 4 -1.9
v -1.4 1.1 -1.9
v -1.4 3.4 -1.9
v -0.8 1.1 -1.9
v -0.8 1.4 -1.9
v -0.8 1.6 -1.9
v -0.8 3.2 -1.9
v -0.8 3.4 -1.9
v 0.9 1.1 -1.9
v 0.9 1.4 -1.9
v 0.9 1.6 -1.9
v 0.9 3.2 -1.9
v 0.9 3.4 -1.9
v 1.5 1.1 -1.9
v 1.5 3.4 -1.9
v 1.9 0.2 -1.9
v 1.9 4 -1.9
v -1.2 0.2 0.7
v -1.2 0.6 0.7
v -1.2 0.7 0.7
v -1.2 1 0.7
v -1.1 0.2 0.7
v -1.1 0.6 0.7
v -1.1 0.7 0.7
v -1.1 1 0.7
v -0.9 0.2 0.7
v -0.9 0.6 0.7
v -0.8 0.2 0.7
v -0.8 0.6 0.7
v -1.2 0.2 0.4
v -1.2 1.1 0.4
v -1.1 0.2 0.4
v -1.1 0.6 0.4
v -1.1 0.7 0.4
v -1.1 1.1 0.4
v -0.9 0.2 0.4
v -0.9 0.6 0.4
v -0.8 0.2 0.4
v -0.8 0.7 0.4
v -1.2 1.6 -1.9
v -1.2 3.2 -1.9
v -1.1 1.7 -1.9
v -1.1 3.2 -1.9
v -1 1.7 -1.9
v -1 3.2 -1.9
v -0.8 1.6 -1.9
v -0.8 3.2 -1.9
v 0.9 1.6 -1.9
v 0.9 3.2 -1.9
v 1.2 1.6 -1.9
v 1.2 3.2 -1.9
v 1.3 1.6 -1.9
v 1.3 3.2 -1.9
v -2 0 -2
v -2 0.1 -2
v -2 0.2 -2
v -2 4 -2
v -1.4 1.4 -2
v -1.4 3.4 -2
v -1.2 1.6 -2
v -1.2 3.2 -2
v 1.3 1.6 -2
v 1.3 3.2 -2
v 1.5 1.4 -2
v 1.5 3.4 -2
v 2 0 -2
v 2 0.1 -2
v 2 0.2 -2
v 2 4 -2
v -2 0 2
v 2 0 2
v 1.2 0 1.4
v 1.6 0 1.4
v 1.2 0 1.3
v 1.6 0 1.3
v -1.2 0 1.2
v 2.38419e-07 0 1.2
v -1.2 0 1.1
v 2.38419e-07 0 1.1
v 0.4 0 0.2
v 0.7 0 0.2
v 0.4 0 0.0999999
v 0.7 0 0.0999999
v -1.3 0 -0.7
v 0.8 0 -0.7
v -1.3 0 -0.9
v 0.8 0 -0.9
v -2 0 -2
v 2 0 -2
v -1.1 0.6 0.8
v -0.9 0.6 0.8
v -1.2 0.6 0.7
v -1.1 0.6 0.7
v -0.9 0.6 0.7
v -0.8 0.6 0.7
v -1.2 0.6 0.5
v -1.1 0.6 0.5
v -0.9 0.6 0.5
v -0.8 0.6 0.5
v -1.1 0.6 0.4
v -0.9 0.6 0.4
v -1.2 1 0.7
v -1.1 1 0.7
v -1.2 1 0.5
v -1.1 1 0.5
v -1.4 1.1 -1.8
v -0.8 1.1 -1.8
v 0.9 1.1 -1.8
v 1.5 1.1 -1.8
v -1.4 1.1 -1.9
v -0.8 1.1 -1.9
v 0.9 1.1 -1.9
v 1.5 1.1 -1.9
v -1.2 3.2 -1.9
v -1.1 3.2 -1.9
v -1 3.2 -1.9
v -0.8 3.2 -1.9
v 0.9 3.2 -1.9
v 1.2 3.2 -1.9
v 1.3 3.2 -1.9
v -1.2 3.2 -2
v 1.3 3.2 -2
v -1.9 0.2 2
v 1.9 0.2 2
v -1.2 0.2 0.8
v -1.1 0.2 0.8
v -0.9 0.2 0.8
v -0.8 0.2 0.8
v -1.2 0.2 0.7
v -1.1 0.2 0.7
v -0.9 0.2 0.7
v -0.8 0.2 0.7
v -1.2 0.2 0.5
v -1.1 0.2 0.5
v -0.9 0.2 0.5
v -0.8 0.2 0.5
v -1.2 0.2 0.4
v -1.1 0.2 0.4
v -0.9 0.2 0.4
v -0.8 0.2 0.4
v -1.9 0.2 -1.9
v 1.9 0.2 -1.9
v -1.1 0.7 0.8
v -0.8 0.7 0.8
v -1.2 0.7 0.7
v -1.1 0.7 0.7
v -1.2 0.7 0.5
v -1.1 0.7 0.5
v -1.1 0.7 0.4
v -0.8 0.7 0.4
v -1.2 1.1 0.8
v -1.1 1.1 0.8
v -1.2 1.1 0.4
v -1.1 1.1 0.4
v -1.2 1.6 -1.9
v -0.8 1.6 -1.9
v 0.9 1.6 -1.9
v 1.2 1.6 -1.9
v 1.3 1.6 -1.9
v -1.2 1.6 -2
v 1.3 1.6 -2
v -1.4 3.4 -1.8
v -0.8 3.4 -1.8
v 0.9 3.4 -1.8
v 1.5 3.4 -1.8
v -1.4 3.4 -1.9
v -0.8 3.4 -1.9
v 0.9 3.4 -1.9
v 1.5 3.4 -1.9
v -2 4 2
v -1.9 4 2
v 1.9 4 2
v 2 4 2
v -2 4 -1.9
v -1.9 4 -1.9
v 1.9 4 -1.9
v 2 4 -1.9
v -2 4 -2
v 2 4 -2

# faces
f 3/8/1 2/8/1 1/8/1
f 4/8/1 2/8/1 3/8/1
f 5/3/1 4/3/1 3/3/1
f 6/3/1 4/3/1 5/3/1
f 7/3/1 4/3/1 6/3/1
f 8/2/1 6/2/1 5/2/1
f 9/1/1 7/1/1 6/1/1
f 9/2/1 6/2/1 8/2/1
f 10/1/1 7/1/1 9/1/1
f 13/5/1 12/5/1 11/5/1
f 14/5/1 12/5/1 13/5/1
f 19/2/1 16/2/1 15/2/1
f 20/2/1 18/2/1 17/2/1
f 21/2/1 19/2/1 15/2/1
f 21/2/1 20/2/1 19/2/1
f 22/2/1 18/2/1 20/2/1
f 22/2/1 20/2/1 21/2/1
f 23/2/1 21/2/1 15/2/1
f 24/2/1 18/2/1 22/2/1
f 25/2/1 23/2/1 15/2/1
f 25/2/1 24/2/1 23/2/1
f 26/2/1 18/2/1 24/2/1
f 26/2/1 24/2/1 25/2/1
f 31/2/1 28/2/1 27/2/1
f 32/2/1 28/2/1 31/2/1
f 33/2/1 30/2/1 29/2/1
f 34/2/1 30/2/1 33/2/1
f 37/5/1 36/5/1 35/5/1
f 38/5/1 37/5/1 35/5/1
f 39/5/1 38/5/1 35/5/1
f 40/5/1 39/5/1 35/5/1
f 41/5/1 39/5/1 40/5/1
f 44/4/1 43/4/1 42/4/1
f 45/4/1 43/4/1 44/4/1
f 48/2/1 47/2/1 46/2/1
f 49/2/1 47/2/1 48/2/1
f 50/2/2 51/2/2 52/2/2
f 52/2/2 51/2/2 53/2/2
f 54/4/2 55/4/2 56/4/2
f 56/4/2 55/4/2 57/4/2
f 58/2/2 59/2/2 62/2/2
f 62/2/2 59/2/2 63/2/2
f 60/2/2 61/2/2 64/2/2
f 64/2/2 61/2/2 65/2/2
f 66/2/2 67/2/2 70/2/2
f 68/2/2 69/2/2 71/2/2
f 66/2/2 70/2/2 72/2/2
f 70/2/2 71/2/2 72/2/2
f 71/2/2 69/2/2 73/2/2
f 72/2/2 71/2/2 73/2/2
f 74/2/2 75/2/2 78/2/2
f 76/2/2 77/2/2 79/2/2
f 74/2/2 78/2/2 80/2/2
f 78/2/2 79/2/2 80/2/2
f 79/2/2 77/2/2 81/2/2
f 80/2/2 79/2/2 81/2/2
f 82/5/2 83/5/2 84/5/2
f 82/5/2 84/5/2 85/5/2
f 82/5/2 85/5/2 86/5/2
f 82/5/2 86/5/2 87/5/2
f 87/5/2 86/5/2 88/5/2
f 89/5/2 90/5/2 91/5/2
f 91/5/2 90/5/2 92/5/2
f 93/8/2 94/8/2 95/8/2
f 95/8/2 94/8/2 96/8/2
f 95/3/2 96/3/2 97/3/2
f 97/3/2 96/3/2 98/3/2
f 98/3/2 96/3/2 99/3/2
f 97/2/2 98/2/2 100/2/2
f 98/1/2 99/1/2 101/1/2
f 100/2/2 98/2/2 101/2/2
f 101/1/2 99/1/2 102/1/2
f 107/3/3 105/3/3 104/3/3
f 107/2/3 106/2/3 105/2/3
f 108/2/3 106/2/3 107/2/3
f 109/3/3 107/3/3 104/3/3
f 111/8/3 104/8/3 103/8/3
f 112/3/3 109/3/3 104/3/3
f 112/8/3 104/8/3 111/8/3
f 113/2/3 110/2/3 109/2/3
f 113/3/3 109/3/3 112/3/3
f 114/2/3 110/2/3 113/2/3
f 117/2/3 116/2/3 115/2/3
f 118/2/3 116/2/3 117/2/3
f 119/2/3 116/2/3 118/2/3
f 120/2/3 116/2/3 119/2/3
f 122/2/3 119/2/3 118/2/3
f 123/2/3 122/2/3 121/2/3
f 124/2/3 119/2/3 122/2/3
f 124/2/3 122/2/3 123/2/3
f 129/2/3 126/2/3 125/2/3
f 130/2/3 126/2/3 129/2/3
f 131/2/3 128/2/3 127/2/3
f 132/2/3 128/2/3 131/2/3
f 135/2/3 134/2/3 133/2/3
f 136/2/3 134/2/3 135/2/3
f 139/5/3 138/5/3 137/5/3
f 140/5/3 138/5/3 139/5/3
f 141/5/3 139/5/3 137/5/3
f 141/6/3 140/6/3 139/6/3
f 142/5/3 138/5/3 140/5/3
f 142/6/3 140/6/3 141/6/3
f 143/5/3 141/5/3 137/5/3
f 143/5/3 142/5/3 141/5/3
f 144/5/3 138/5/3 142/5/3
f 144/5/3 142/5/3 143/5/3
f 147/5/3 146/5/3 145/5/3
f 148/5/3 146/5/3 147/5/3
f 149/5/3 147/5/3 145/5/3
f 149/6/3 148/6/3 147/6/3
f 150/5/3 146/5/3 148/5/3
f 150/6/3 148/6/3 149/6/3
f 151/5/3 149/5/3 145/5/3
f 151/5/3 150/5/3 149/5/3
f 152/5/3 146/5/3 150/5/3
f 152/5/3 150/5/3 151/5/3
f 155/1/3 154/1/3 153/1/3
f 156/1/3 154/1/3 155/1/3
f 157/1/3 155/1/3 153/1/3
f 161/1/3 154/1/3 156/1/3
f 162/1/3 157/1/3 153/1/3
f 162/1/3 158/1/3 157/1/3
f 163/4/3 159/4/3 158/4/3
f 163/1/3 158/1/3 162/1/3
f 164/4/3 159/4/3 163/4/3
f 165/4/3 161/4/3 160/4/3
f 166/1/3 154/1/3 161/1/3
f 166/4/3 161/4/3 165/4/3
f 167/1/3 162/1/3 153/1/3
f 168/1/3 154/1/3 166/1/3
f 169/1/3 167/1/3 153/1/3
f 169/1/3 168/1/3 167/1/3
f 170/1/3 154/1/3 168/1/3
f 170/1/3 168/1/3 169/1/3
f 171/2/4 172/2/4 175/2/4
f 175/2/4 172/2/4 176/2/4
f 173/2/4 174/2/4 177/2/4
f 177/2/4 174/2/4 178/2/4
f 179/2/4 180/2/4 181/2/4
f 181/2/4 180/2/4 182/2/4
f 183/2/4 184/2/4 185/2/4
f 185/2/4 184/2/4 186/2/4
f 186/2/4 184/2/4 187/2/4
f 187/2/4 184/2/4 188/2/4
f 186/2/4 187/2/4 190/2/4
f 189/2/4 190/2/4 191/2/4
f 190/2/4 187/2/4 192/2/4
f 191/2/4 190/2/4 192/2/4
f 193/5/4 194/5/4 195/5/4
f 195/5/4 194/5/4 196/5/4
f 193/5/4 195/5/4 197/5/4
f 195/6/4 196/6/4 197/6/4
f 197/6/4 196/6/4 198/6/4
f 193/5/4 197/5/4 199/5/4
f 197/5/4 198/5/4 199/5/4
f 199/5/4 198/5/4 200/5/4
f 201/5/4 202/5/4 203/5/4
f 203/5/4 202/5/4 204/5/4
f 203/6/4 204/6/4 205/6/4
f 205/6/4 204/6/4 206/6/4
f 209/1/4 210/1/4 211/1/4
f 211/1/4 210/1/4 212/1/4
f 211/4/4 212/4/4 213/4/4
f 213/4/4 212/4/4 214/4/4
f 211/4/4 213/4/4 215/4/4
f 214/4/4 212/4/4 216/4/4
f 209/1/4 211/1/4 217/1/4
f 215/4/4 216/4/4 217/4/4
f 211/4/4 215/4/4 217/4/4
f 216/4/4 212/4/4 218/4/4
f 217/4/4 216/4/4 218/4/4
f 212/1/4 210/1/4 218/1/4
f 207/8/4 208/8/4 219/8/4
f 208/3/4 209/3/4 220/3/4
f 219/8/4 208/8/4 220/8/4
f 209/1/4 217/1/4 221/1/4
f 220/3/4 209/3/4 221/3/4
f 217/1/4 218/1/4 221/1/4
f 218/1/4 210/1/4 222/1/4
f 221/1/4 218/1/4 222/1/4
f 225/8/5 224/8/5 223/8/5
f 226/8/5 224/8/5 225/8/5
f 227/8/5 225/8/5 223/8/5
f 227/7/5 226/7/5 225/7/5
f 228/8/5 224/8/5 226/8/5
f 228/7/5 226/7/5 227/7/5
f 229/8/5 227/8/5 223/8/5
f 229/8/5 228/8/5 227/8/5
f 230/8/5 228/8/5 229/8/5
f 231/8/5 229/8/5 223/8/5
f 231/7/5 230/7/5 229/7/5
f 232/8/5 228/8/5 230/8/5
f 232/7/5 230/7/5 231/7/5
f 233/8/5 232/8/5 231/8/5
f 233/8/5 228/8/5 232/8/5
f 234/8/5 228/8/5 233/8/5
f 235/8/5 233/8/5 231/8/5
f 235/7/5 234/7/5 233/7/5
f 236/8/5 228/8/5 234/8/5
f 236/7/5 234/7/5 235/7/5
f 237/8/5 231/8/5 223/8/5
f 237/8/5 235/8/5 231/8/5
f 237/8/5 236/8/5 235/8/5
f 238/8/5 228/8/5 236/8/5
f 238/8/5 236/8/5 237/8/5
f 239/8/5 237/8/5 223/8/5
f 239/7/5 238/7/5 237/7/5
f 240/8/5 228/8/5 238/8/5
f 240/7/5 238/7/5 239/7/5
f 241/8/5 239/8/5 223/8/5
f 241/8/5 240/8/5 239/8/5
f 242/8/5 224/8/5 228/8/5
f 242/8/5 240/8/5 241/8/5
f 242/8/5 228/8/5 240/8/5
f 246/2/5 244/2/5 243/2/5
f 247/2/5 244/2/5 246/2/5
f 249/2/5 246/2/5 245/2/5
f 249/2/5 248/2/5 247/2/5
f 249/2/5 247/2/5 246/2/5
f 250/2/5 248/2/5 249/2/5
f 251/2/5 248/2/5 250/2/5
f 252/2/5 248/2/5 251/2/5
f 253/2/5 251/2/5 250/2/5
f 254/2/5 251/2/5 253/2/5
f 257/2/5 256/2/5 255/2/5
f 258/2/5 256/2/5 257/2/5
f 263/5/5 260/5/5 259/5/5
f 264/5/5 260/5/5 263/5/5
f 265/5/5 262/5/5 261/5/5
f 266/5/5 262/5/5 265/5/5
f 274/4/5 268/4/5 267/4/5
f 274/4/5 273/4/5 272/4/5
f 274/4/5 272/4/5 271/4/5
f 274/4/5 271/4/5 270/4/5
f 274/4/5 270/4/5 269/4/5
f 274/4/5 269/4/5 268/4/5
f 275/4/5 273/4/5 274/4/5
f 276/3/6 277/3/6 278/3/6
f 278/3/6 277/3/6 279/3/6
f 279/3/6 277/3/6 280/3/6
f 280/3/6 277/3/6 281/3/6
f 276/3/6 278/3/6 282/3/6
f 279/3/6 280/3/6 283/3/6
f 283/3/6 280/3/6 284/3/6
f 281/3/6 277/3/6 285/3/6
f 283/3/6 284/3/6 286/3/6
f 284/3/6 285/3/6 286/3/6
f 276/3/6 282/3/6 286/3/6
f 282/3/6 283/3/6 286/3/6
f 286/3/6 285/3/6 287/3/6
f 287/3/6 285/3/6 288/3/6
f 285/3/6 277/3/6 289/3/6
f 288/3/6 285/3/6 289/3/6
f 276/3/6 286/3/6 290/3/6
f 287/3/6 288/3/6 291/3/6
f 291/3/6 288/3/6 292/3/6
f 289/3/6 277/3/6 293/3/6
f 276/3/6 290/3/6 294/3/6
f 292/3/6 293/3/6 294/3/6
f 291/3/6 292/3/6 294/3/6
f 290/3/6 291/3/6 294/3/6
f 293/3/6 277/3/6 295/3/6
f 294/3/6 293/3/6 295/3/6
f 296/2/6 297/2/6 299/2/6
f 298/2/6 299/2/6 300/2/6
f 299/2/6 297/2/6 301/2/6
f 300/2/6 299/2/6 301/2/6
f 301/2/6 297/2/6 302/2/6
f 302/2/6 297/2/6 303/2/6
f 304/2/6 305/2/6 306/2/6
f 306/2/6 305/2/6 307/2/6
f 308/4/6 309/4/6 313/4/6
f 311/4/6 312/4/6 313/4/6
f 310/4/6 311/4/6 313/4/6
f 309/4/6 310/4/6 313/4/6
f 313/4/6 312/4/6 314/4/6
f 315/5/6 316/5/6 319/5/6
f 319/5/6 316/5/6 320/5/6
f 317/5/6 318/5/6 321/5/6
f 321/5/6 318/5/6 322/5/6
f 323/2/6 324/2/6 327/2/6
f 327/2/6 324/2/6 328/2/6
f 325/2/6 326/2/6 329/2/6
f 329/2/6 326/2/6 330/2/6
f 327/1/6 328/1/6 331/1/6
f 328/1/6 329/1/6 331/1/6
f 329/1/6 330/1/6 331/1/6
f 331/1/6 330/1/6 332/1/6
