{"asset":{"version":"2.0","generator":"Blockbench 5.1.4 glTF exporter"},"scenes":[{"nodes":[6],"name":"blockbench_export"}],"scene":0,"nodes":[{"name":"floor","mesh":0},{"translation":[0,0.5,0.46875],"name":"wall","mesh":1},{"translation":[0.375,0.1875,0],"name":"mesh","mesh":2},{"translation":[-1.3125,0.1875,0],"name":"mesh","mesh":3},{"rotation":[0.7071067811865475,0,0,0.7071067811865476],"translation":[-0.0625,0,0],"name":"plane","mesh":4},{"translation":[0.0625,0.4375,0],"name":"laser","children":[4]},{"rotation":[0,-1,0,6.123233995736766e-17],"name":"root","children":[0,1,2,3,5]}],"bufferViews":[{"buffer":0,"byteOffset":0,"byteLength":48,"target":34962,"byteStride":12},{"buffer":0,"byteOffset":48,"byteLength":48,"target":34962,"byteStride":12},{"buffer":0,"byteOffset":96,"byteLength":32,"target":34962,"byteStride":8},{"buffer":0,"byteOffset":128,"byteLength":12,"target":34963},{"buffer":0,"byteOffset":140,"byteLength":48,"target":34962,"byteStride":12},{"buffer":0,"byteOffset":188,"byteLength":48,"target":34962,"byteStride":12},{"buffer":0,"byteOffset":236,"byteLength":32,"target":34962,"byteStride":8},{"buffer":0,"byteOffset":268,"byteLength":12,"target":34963},{"buffer":0,"byteOffset":280,"byteLength":240,"target":34962,"byteStride":12},{"buffer":0,"byteOffset":520,"byteLength":240,"target":34962,"byteStride":12},{"buffer":0,"byteOffset":760,"byteLength":160,"target":34962,"byteStride":8},{"buffer":0,"byteOffset":920,"byteLength":60,"target":34963},{"buffer":0,"byteOffset":980,"byteLength":240,"target":34962,"byteStride":12},{"buffer":0,"byteOffset":1220,"byteLength":240,"target":34962,"byteStride":12},{"buffer":0,"byteOffset":1460,"byteLength":160,"target":34962,"byteStride":8},{"buffer":0,"byteOffset":1620,"byteLength":60,"target":34963},{"buffer":0,"byteOffset":1680,"byteLength":48,"target":34962,"byteStride":12},{"buffer":0,"byteOffset":1728,"byteLength":48,"target":34962,"byteStride":12},{"buffer":0,"byteOffset":1776,"byteLength":32,"target":34962,"byteStride":8},{"buffer":0,"byteOffset":1808,"byteLength":12,"target":34963},{"buffer":0,"byteOffset":1820,"byteLength":8},{"buffer":0,"byteOffset":1828,"byteLength":24},{"buffer":0,"byteOffset":1852,"byteLength":4},{"buffer":0,"byteOffset":1856,"byteLength":12}],"buffers":[{"byteLength":1868,"uri":"data:application/octet-stream;base64,"}],"accessors":[{"bufferView":0,"componentType":5126,"count":4,"max":[1,0.0625,0.5],"min":[-1,0.0625,-0.5],"type":"VEC3"},{"bufferView":1,"componentType":5126,"count":4,"max":[0,1,0],"min":[0,1,0],"type":"VEC3"},{"bufferView":2,"componentType":5126,"count":4,"max":[0.546875,0.125],"min":[0.296875,0],"type":"VEC2"},{"bufferView":3,"componentType":5123,"count":6,"max":[3],"min":[0],"type":"SCALAR"},{"bufferView":4,"componentType":5126,"count":4,"max":[1,0.53125,-0.03125],"min":[-1,-0.46875,-0.03125],"type":"VEC3"},{"bufferView":5,"componentType":5126,"count":4,"max":[0,0,-1],"min":[0,0,-1],"type":"VEC3"},{"bufferView":6,"componentType":5126,"count":4,"max":[0.546875,0.40625],"min":[0.296875,0.28125],"type":"VEC2"},{"bufferView":7,"componentType":5123,"count":6,"max":[3],"min":[0],"type":"SCALAR"},{"bufferView":8,"componentType":5126,"count":20,"max":[0.5,0.5,0.5],"min":[0.4375,0,-0.5],"type":"VEC3"},{"bufferView":9,"componentType":5126,"count":20,"max":[1,1,0],"min":[-1,-1,-1],"type":"VEC3"},{"bufferView":10,"componentType":5126,"count":20,"max":[0.2578125,0.3125],"min":[0,0],"type":"VEC2"},{"bufferView":11,"componentType":5123,"count":30,"max":[19],"min":[0],"type":"SCALAR"},{"bufferView":12,"componentType":5126,"count":20,"max":[0.5,0.5,0.5],"min":[0.4375,0,-0.5],"type":"VEC3"},{"bufferView":13,"componentType":5126,"count":20,"max":[1,1,0],"min":[-1,-1,-1],"type":"VEC3"},{"bufferView":14,"componentType":5126,"count":20,"max":[0.40625,0.390625],"min":[0.1484375,0.078125],"type":"VEC2"},{"bufferView":15,"componentType":5123,"count":30,"max":[19],"min":[0],"type":"SCALAR"},{"bufferView":16,"componentType":5126,"count":4,"max":[0.8125,0,0.0625],"min":[-0.8125,0,-0.0625],"type":"VEC3"},{"bufferView":17,"componentType":5126,"count":4,"max":[0,1,0],"min":[0,1,0],"type":"VEC3"},{"bufferView":18,"componentType":5126,"count":4,"max":[0.3046875,0.171875],"min":[0.296875,0.1328125],"type":"VEC2"},{"bufferView":19,"componentType":5123,"count":6,"max":[3],"min":[0],"type":"SCALAR"},{"bufferView":20,"componentType":5126,"count":2,"max":[0.125],"min":[0],"type":"SCALAR"},{"bufferView":21,"componentType":5126,"count":2,"max":[1,2,1],"min":[1,1,1],"type":"VEC3"},{"bufferView":22,"componentType":5126,"count":1,"max":[0],"min":[0],"type":"SCALAR"},{"bufferView":23,"componentType":5126,"count":1,"max":[0,0,0],"min":[0,0,0],"type":"VEC3"}],"materials":[{"pbrMetallicRoughness":{"metallicFactor":0,"roughnessFactor":1,"baseColorTexture":{"index":0}},"alphaMode":"MASK","alphaCutoff":0.05,"doubleSided":true}],"textures":[{"sampler":0,"source":0,"name":"laser"}],"samplers":[{"magFilter":9728,"minFilter":9728,"wrapS":33071,"wrapT":33071}],"images":[{"mimeType":"image/png","uri":"data:image/png;base64,"}],"meshes":[{"primitives":[{"mode":4,"attributes":{"POSITION":0,"NORMAL":1,"TEXCOORD_0":2},"indices":3,"material":0}]},{"primitives":[{"mode":4,"attributes":{"POSITION":4,"NORMAL":5,"TEXCOORD_0":6},"indices":7,"material":0}]},{"primitives":[{"mode":4,"attributes":{"POSITION":8,"NORMAL":9,"TEXCOORD_0":10},"indices":11,"material":0}]},{"primitives":[{"mode":4,"attributes":{"POSITION":12,"NORMAL":13,"TEXCOORD_0":14},"indices":15,"material":0}]},{"primitives":[{"mode":4,"attributes":{"POSITION":16,"NORMAL":17,"TEXCOORD_0":18},"indices":19,"material":0}]}],"animations":[{"name":"work-loop","samplers":[{"input":20,"output":21,"interpolation":"STEP"}],"channels":[{"sampler":0,"target":{"node":5,"path":"scale"}}]},{"name":"idle-loop","samplers":[{"input":22,"output":23,"interpolation":"LINEAR"}],"channels":[{"sampler":0,"target":{"node":5,"path":"scale"}}]}]}