{"asset":{"version":"2.0","generator":"Blockbench 5.1.4 glTF exporter"},"scenes":[{"nodes":[12],"name":"blockbench_export"}],"scene":0,"nodes":[{"translation":[0,0.1875,0],"name":"head"},{"translation":[0,0.25,0],"name":"arm_left_2"},{"rotation":[0,0,0.7071067811865475,0.7071067811865476],"translation":[-0.125,0.09375,0],"name":"arm_left","children":[1]},{"translation":[0,0.25,0],"name":"arm_right_"},{"rotation":[0,0,-0.7071067811865475,0.7071067811865476],"translation":[0.125,0.09375,0],"name":"arm_right2","children":[3]},{"translation":[0,0.25,0],"name":"chest","children":[0,2,4]},{"translation":[0,0.5625,0],"name":"torso","children":[5]},{"translation":[0,0.25,0],"name":"shin_right"},{"rotation":[0,0,-0.9961946980917455,0.08715574274765836],"translation":[0.05641897779163366,0.5293509691265259,0],"name":"leg_right","children":[7]},{"translation":[0,0.25,0],"name":"shin_left"},{"rotation":[0,0,0.9961946980917455,0.08715574274765836],"translation":[-0.05641897779163366,0.5293509691265259,0],"name":"leg_left","children":[9]},{"name":"armature","mesh":0,"children":[6,8,10],"skin":0},{"name":"root","children":[11]}],"bufferViews":[{"buffer":0,"byteOffset":0,"byteLength":6720,"target":34962,"byteStride":12},{"buffer":0,"byteOffset":6720,"byteLength":6720,"target":34962,"byteStride":12},{"buffer":0,"byteOffset":13440,"byteLength":4480,"target":34962,"byteStride":8},{"buffer":0,"byteOffset":17920,"byteLength":4480,"target":34962,"byteStride":8},{"buffer":0,"byteOffset":22400,"byteLength":8960,"target":34962,"byteStride":16},{"buffer":0,"byteOffset":31360,"byteLength":1680,"target":34963},{"buffer":0,"byteOffset":33040,"byteLength":704},{"buffer":0,"byteOffset":33744,"byteLength":12},{"buffer":0,"byteOffset":33756,"byteLength":48},{"buffer":0,"byteOffset":33804,"byteLength":8},{"buffer":0,"byteOffset":33812,"byteLength":32},{"buffer":0,"byteOffset":33844,"byteLength":8},{"buffer":0,"byteOffset":33852,"byteLength":32},{"buffer":0,"byteOffset":33884,"byteLength":12},{"buffer":0,"byteOffset":33896,"byteLength":48},{"buffer":0,"byteOffset":33944,"byteLength":12},{"buffer":0,"byteOffset":33956,"byteLength":48},{"buffer":0,"byteOffset":34004,"byteLength":12},{"buffer":0,"byteOffset":34016,"byteLength":48},{"buffer":0,"byteOffset":34064,"byteLength":12},{"buffer":0,"byteOffset":34076,"byteLength":48},{"buffer":0,"byteOffset":34124,"byteLength":12},{"buffer":0,"byteOffset":34136,"byteLength":48},{"buffer":0,"byteOffset":34184,"byteLength":12},{"buffer":0,"byteOffset":34196,"byteLength":48}],"buffers":[{"byteLength":34244,"uri":"data:application/octet-stream;base64,"}],"accessors":[{"bufferView":0,"componentType":5126,"count":560,"max":[0.625,1.375,0.125],"min":[-0.625,0,-0.125],"type":"VEC3"},{"bufferView":1,"componentType":5126,"count":560,"max":[1,1,1],"min":[-1,-1,-1],"type":"VEC3"},{"bufferView":2,"componentType":5126,"count":560,"max":[1.03125,1],"min":[0,0],"type":"VEC2"},{"bufferView":3,"componentType":5123,"count":560,"max":[10,0,0,0],"min":[0,0,0,0],"type":"VEC4"},{"bufferView":4,"componentType":5126,"count":560,"max":[1,0,0,0],"min":[1,0,0,0],"type":"VEC4"},{"bufferView":5,"componentType":5123,"count":840,"max":[559],"min":[0],"type":"SCALAR"},{"bufferView":6,"componentType":5126,"count":11,"max":[1,1,0,0,1,1,0,0,0,0,1,0,0.90625,0.5115118622779846,0,1],"min":[-0.9848077297210693,-1,0,0,-1,-0.9848077297210693,0,0,0,0,1,0,-0.90625,-1,0,1],"type":"MAT4"},{"bufferView":7,"componentType":5126,"count":3,"max":[1],"min":[0],"type":"SCALAR"},{"bufferView":8,"componentType":5126,"count":3,"max":[0.15212339162826538,0,0,0.9883615374565125],"min":[-0.3420201539993286,0,0,0.9396926164627075],"type":"VEC4"},{"bufferView":9,"componentType":5126,"count":2,"max":[1],"min":[0],"type":"SCALAR"},{"bufferView":10,"componentType":5126,"count":2,"max":[0,0,-0.258819043636322,0.9659258127212524],"min":[0,0,-0.258819043636322,0.9659258127212524],"type":"VEC4"},{"bufferView":11,"componentType":5126,"count":2,"max":[1],"min":[0],"type":"SCALAR"},{"bufferView":12,"componentType":5126,"count":2,"max":[0,0,0.2164396196603775,0.9762960076332092],"min":[0,0,0.2164396196603775,0.9762960076332092],"type":"VEC4"},{"bufferView":13,"componentType":5126,"count":3,"max":[1],"min":[0],"type":"SCALAR"},{"bufferView":14,"componentType":5126,"count":3,"max":[0.013258426450192928,0.5534561276435852,-0.8283056020736694,0.08614138513803482],"min":[-0.048421137034893036,-0.1515445113182068,-0.9846004843711853,0.07246734946966171],"type":"VEC4"},{"bufferView":15,"componentType":5126,"count":3,"max":[1],"min":[0],"type":"SCALAR"},{"bufferView":16,"componentType":5126,"count":3,"max":[0,0,0.9961947202682495,0.08715574443340302],"min":[-0.029809020459651947,-0.34071865677833557,0.9361168146133423,0.08189960569143295],"type":"VEC4"},{"bufferView":17,"componentType":5126,"count":3,"max":[1],"min":[0],"type":"SCALAR"},{"bufferView":18,"componentType":5126,"count":3,"max":[0.5555702447891235,0,0,0.9396926164627075],"min":[0.3420201539993286,0,0,0.8314695954322815],"type":"VEC4"},{"bufferView":19,"componentType":5126,"count":3,"max":[1],"min":[0],"type":"SCALAR"},{"bufferView":20,"componentType":5126,"count":3,"max":[0.3420201539993286,0,0,1],"min":[0,0,0,0.9396926164627075],"type":"VEC4"},{"bufferView":21,"componentType":5126,"count":3,"max":[1],"min":[0],"type":"SCALAR"},{"bufferView":22,"componentType":5126,"count":3,"max":[0.4617486000061035,0,0,0.8870108127593994],"min":[-0.4617486000061035,0,0,0.8870108127593994],"type":"VEC4"},{"bufferView":23,"componentType":5126,"count":3,"max":[1],"min":[0],"type":"SCALAR"},{"bufferView":24,"componentType":5126,"count":3,"max":[0.30070579051971436,0,0,1],"min":[0,0,0,0.9537169337272644],"type":"VEC4"}],"materials":[{"pbrMetallicRoughness":{"metallicFactor":0,"roughnessFactor":1},"alphaMode":"MASK","alphaCutoff":0.05,"doubleSided":true}],"meshes":[{"primitives":[{"mode":4,"attributes":{"POSITION":0,"NORMAL":1,"TEXCOORD_0":2,"JOINTS_0":3,"WEIGHTS_0":4},"indices":5,"material":0}]}],"skins":[{"inverseBindMatrices":6,"joints":[6,5,0,2,1,4,3,8,7,10,9],"skeleton":6}],"animations":[{"name":"walk-loop","samplers":[{"input":7,"output":8,"interpolation":"LINEAR"},{"input":9,"output":10,"interpolation":"LINEAR"},{"input":11,"output":12,"interpolation":"LINEAR"},{"input":13,"output":14,"interpolation":"LINEAR"},{"input":15,"output":16,"interpolation":"LINEAR"},{"input":17,"output":18,"interpolation":"LINEAR"},{"input":19,"output":20,"interpolation":"LINEAR"},{"input":21,"output":22,"interpolation":"LINEAR"},{"input":23,"output":24,"interpolation":"LINEAR"}],"channels":[{"sampler":0,"target":{"node":6,"path":"rotation"}},{"sampler":1,"target":{"node":5,"path":"rotation"}},{"sampler":2,"target":{"node":0,"path":"rotation"}},{"sampler":3,"target":{"node":8,"path":"rotation"}},{"sampler":4,"target":{"node":10,"path":"rotation"}},{"sampler":5,"target":{"node":7,"path":"rotation"}},{"sampler":6,"target":{"node":9,"path":"rotation"}},{"sampler":7,"target":{"node":1,"path":"rotation"}},{"sampler":8,"target":{"node":3,"path":"rotation"}}]}]}