{"asset":{"version":"2.0","generator":"Blockbench 5.1.4 glTF exporter"},"scenes":[{"nodes":[12],"name":"blockbench_export"}],"scene":0,"nodes":[{"translation":[0,-0.328125,0],"name":"mesh","mesh":0},{"translation":[0,-0.4375,0],"name":"mesh","mesh":1},{"translation":[0.078125,-0.25,0],"name":"leg-right","children":[1]},{"translation":[0,-0.4375,0],"name":"mesh","mesh":2},{"translation":[-0.078125,-0.25,0],"name":"leg-left","children":[3]},{"translation":[0,-0.125,0],"name":"mesh","mesh":3},{"translation":[0,0.25,0],"name":"head","children":[5]},{"translation":[0,-0.46875,0],"name":"mesh","mesh":4},{"translation":[-0.125,0.15625,0],"name":"arm-left","children":[7]},{"translation":[0,-0.46875,0],"name":"mesh","mesh":5},{"translation":[0.125,0.15625,0],"name":"arm-right","children":[9]},{"translation":[0,0.6875,0],"name":"body","children":[0,2,4,6,8,10]},{"name":"root","children":[11]}],"bufferViews":[{"buffer":0,"byteOffset":0,"byteLength":288,"target":34962,"byteStride":12},{"buffer":0,"byteOffset":288,"byteLength":288,"target":34962,"byteStride":12},{"buffer":0,"byteOffset":576,"byteLength":192,"target":34962,"byteStride":8},{"buffer":0,"byteOffset":768,"byteLength":72,"target":34963},{"buffer":0,"byteOffset":840,"byteLength":288,"target":34962,"byteStride":12},{"buffer":0,"byteOffset":1128,"byteLength":288,"target":34962,"byteStride":12},{"buffer":0,"byteOffset":1416,"byteLength":192,"target":34962,"byteStride":8},{"buffer":0,"byteOffset":1608,"byteLength":72,"target":34963},{"buffer":0,"byteOffset":1680,"byteLength":288,"target":34962,"byteStride":12},{"buffer":0,"byteOffset":1968,"byteLength":288,"target":34962,"byteStride":12},{"buffer":0,"byteOffset":2256,"byteLength":192,"target":34962,"byteStride":8},{"buffer":0,"byteOffset":2448,"byteLength":72,"target":34963},{"buffer":0,"byteOffset":2520,"byteLength":288,"target":34962,"byteStride":12},{"buffer":0,"byteOffset":2808,"byteLength":288,"target":34962,"byteStride":12},{"buffer":0,"byteOffset":3096,"byteLength":192,"target":34962,"byteStride":8},{"buffer":0,"byteOffset":3288,"byteLength":72,"target":34963},{"buffer":0,"byteOffset":3360,"byteLength":288,"target":34962,"byteStride":12},{"buffer":0,"byteOffset":3648,"byteLength":288,"target":34962,"byteStride":12},{"buffer":0,"byteOffset":3936,"byteLength":192,"target":34962,"byteStride":8},{"buffer":0,"byteOffset":4128,"byteLength":72,"target":34963},{"buffer":0,"byteOffset":4200,"byteLength":288,"target":34962,"byteStride":12},{"buffer":0,"byteOffset":4488,"byteLength":288,"target":34962,"byteStride":12},{"buffer":0,"byteOffset":4776,"byteLength":192,"target":34962,"byteStride":8},{"buffer":0,"byteOffset":4968,"byteLength":72,"target":34963},{"buffer":0,"byteOffset":5040,"byteLength":208},{"buffer":0,"byteOffset":5248,"byteLength":624},{"buffer":0,"byteOffset":5872,"byteLength":68},{"buffer":0,"byteOffset":5940,"byteLength":272},{"buffer":0,"byteOffset":6212,"byteLength":36},{"buffer":0,"byteOffset":6248,"byteLength":108},{"buffer":0,"byteOffset":6356,"byteLength":204},{"buffer":0,"byteOffset":6560,"byteLength":816},{"buffer":0,"byteOffset":7376,"byteLength":208},{"buffer":0,"byteOffset":7584,"byteLength":832},{"buffer":0,"byteOffset":8416,"byteLength":156},{"buffer":0,"byteOffset":8572,"byteLength":624},{"buffer":0,"byteOffset":9196,"byteLength":156},{"buffer":0,"byteOffset":9352,"byteLength":624},{"buffer":0,"byteOffset":9976,"byteLength":160},{"buffer":0,"byteOffset":10136,"byteLength":640},{"buffer":0,"byteOffset":10776,"byteLength":156},{"buffer":0,"byteOffset":10932,"byteLength":468},{"buffer":0,"byteOffset":11400,"byteLength":156},{"buffer":0,"byteOffset":11556,"byteLength":624},{"buffer":0,"byteOffset":12180,"byteLength":160},{"buffer":0,"byteOffset":12340,"byteLength":640},{"buffer":0,"byteOffset":12980,"byteLength":152},{"buffer":0,"byteOffset":13132,"byteLength":608}],"buffers":[{"byteLength":13740,"uri":"data:application/octet-stream;base64,"}],"accessors":[{"bufferView":0,"componentType":5126,"count":24,"max":[0.125,0.5625,0.0625],"min":[-0.125,0.0625,-0.0625],"type":"VEC3"},{"bufferView":1,"componentType":5126,"count":24,"max":[1,1,1],"min":[-1,-1,-1],"type":"VEC3"},{"bufferView":2,"componentType":5126,"count":24,"max":[0.375,0.375],"min":[0,0],"type":"VEC2"},{"bufferView":3,"componentType":5123,"count":36,"max":[23],"min":[0],"type":"SCALAR"},{"bufferView":4,"componentType":5126,"count":24,"max":[0.03125,0.4375,0.03125],"min":[-0.03125,0,-0.03125],"type":"VEC3"},{"bufferView":5,"componentType":5126,"count":24,"max":[1,1,1],"min":[-1,-1,-1],"type":"VEC3"},{"bufferView":6,"componentType":5126,"count":24,"max":[0.6875,0.28125],"min":[0.5625,0],"type":"VEC2"},{"bufferView":7,"componentType":5123,"count":36,"max":[23],"min":[0],"type":"SCALAR"},{"bufferView":8,"componentType":5126,"count":24,"max":[0.03125,0.4375,0.03125],"min":[-0.03125,0,-0.03125],"type":"VEC3"},{"bufferView":9,"componentType":5126,"count":24,"max":[1,1,1],"min":[-1,-1,-1],"type":"VEC3"},{"bufferView":10,"componentType":5126,"count":24,"max":[0.71875,0.59375],"min":[0.59375,0.3125],"type":"VEC2"},{"bufferView":11,"componentType":5123,"count":36,"max":[23],"min":[0],"type":"SCALAR"},{"bufferView":12,"componentType":5126,"count":24,"max":[0.09375,0.375,0.09375],"min":[-0.09375,0.125,-0.09375],"type":"VEC3"},{"bufferView":13,"componentType":5126,"count":24,"max":[1,1,1],"min":[-1,-1,-1],"type":"VEC3"},{"bufferView":14,"componentType":5126,"count":24,"max":[0.5625,0.6875],"min":[0.1875,0.375],"type":"VEC2"},{"bufferView":15,"componentType":5123,"count":36,"max":[23],"min":[0],"type":"SCALAR"},{"bufferView":16,"componentType":5126,"count":24,"max":[0.03125,0.5,0.03125],"min":[-0.03125,0,-0.03125],"type":"VEC3"},{"bufferView":17,"componentType":5126,"count":24,"max":[1,1,1],"min":[-1,-1,-1],"type":"VEC3"},{"bufferView":18,"componentType":5126,"count":24,"max":[0.125,0.71875],"min":[0,0.40625],"type":"VEC2"},{"bufferView":19,"componentType":5123,"count":36,"max":[23],"min":[0],"type":"SCALAR"},{"bufferView":20,"componentType":5126,"count":24,"max":[0.03125,0.5,0.03125],"min":[-0.03125,0,-0.03125],"type":"VEC3"},{"bufferView":21,"componentType":5126,"count":24,"max":[1,1,1],"min":[-1,-1,-1],"type":"VEC3"},{"bufferView":22,"componentType":5126,"count":24,"max":[0.53125,0.3125],"min":[0.40625,0],"type":"VEC2"},{"bufferView":23,"componentType":5123,"count":36,"max":[23],"min":[0],"type":"SCALAR"},{"bufferView":24,"componentType":5126,"count":52,"max":[2.9583332538604736],"min":[0],"type":"SCALAR"},{"bufferView":25,"componentType":5126,"count":52,"max":[0,0.7186310887336731,0],"min":[0,0.6563689112663269,0],"type":"VEC3"},{"bufferView":26,"componentType":5126,"count":17,"max":[2.9166667461395264],"min":[0],"type":"SCALAR"},{"bufferView":27,"componentType":5126,"count":17,"max":[0.020408809185028076,0.0001675409876042977,0.02577875927090645,1],"min":[-0.016126250848174095,-0.00017760532500687987,-0.012671339325606823,0.9996446967124939],"type":"VEC4"},{"bufferView":28,"componentType":5126,"count":9,"max":[2.9206666946411133],"min":[1.875],"type":"SCALAR"},{"bufferView":29,"componentType":5126,"count":9,"max":[1.600000023841858,1.600000023841858,1.600000023841858],"min":[0,0,0],"type":"VEC3"},{"bufferView":30,"componentType":5126,"count":51,"max":[2.9583332538604736],"min":[0],"type":"SCALAR"},{"bufferView":31,"componentType":5126,"count":51,"max":[0.2578566372394562,0,0,1],"min":[-0.2578566372394562,0,0,0.9661831855773926],"type":"VEC4"},{"bufferView":32,"componentType":5126,"count":52,"max":[3],"min":[0],"type":"SCALAR"},{"bufferView":33,"componentType":5126,"count":52,"max":[0.258819043636322,0,0,1],"min":[-0.258819043636322,0,0,0.9659258127212524],"type":"VEC4"},{"bufferView":34,"componentType":5126,"count":39,"max":[1.9583333730697632],"min":[0],"type":"SCALAR"},{"bufferView":35,"componentType":5126,"count":39,"max":[0.258819043636322,0,0,1],"min":[-0.258819043636322,0,0,0.9659258127212524],"type":"VEC4"},{"bufferView":36,"componentType":5126,"count":39,"max":[1.9583333730697632],"min":[0],"type":"SCALAR"},{"bufferView":37,"componentType":5126,"count":39,"max":[0.258819043636322,0,0,1],"min":[-0.258819043636322,0,0,0.9659258127212524],"type":"VEC4"},{"bufferView":38,"componentType":5126,"count":40,"max":[1.9583333730697632],"min":[0],"type":"SCALAR"},{"bufferView":39,"componentType":5126,"count":40,"max":[0.129415825009346,0,0,1],"min":[-0.13052618503570557,0,0,0.9914448857307434],"type":"VEC4"},{"bufferView":40,"componentType":5126,"count":39,"max":[1.9583333730697632],"min":[0],"type":"SCALAR"},{"bufferView":41,"componentType":5126,"count":39,"max":[0,0.761858344078064,0],"min":[0,0.612500011920929,0],"type":"VEC3"},{"bufferView":42,"componentType":5126,"count":39,"max":[1.9583333730697632],"min":[0],"type":"SCALAR"},{"bufferView":43,"componentType":5126,"count":39,"max":[0.025928771123290062,0.0011418224312365055,0.04323188588023186,1],"min":[-0.026152033358812332,0,-0.04360444098711014,0.9987058639526367],"type":"VEC4"},{"bufferView":44,"componentType":5126,"count":40,"max":[1.9583333730697632],"min":[0],"type":"SCALAR"},{"bufferView":45,"componentType":5126,"count":40,"max":[1,0,0,1],"min":[-0.9914448857307434,0,0,-1],"type":"VEC4"},{"bufferView":46,"componentType":5126,"count":38,"max":[1.9583333730697632],"min":[0],"type":"SCALAR"},{"bufferView":47,"componentType":5126,"count":38,"max":[0.9914448857307434,0,0,1],"min":[-1,0,0,-0.9914448857307434],"type":"VEC4"}],"materials":[{"pbrMetallicRoughness":{"metallicFactor":0,"roughnessFactor":1,"baseColorTexture":{"index":0}},"alphaMode":"MASK","alphaCutoff":0.05,"doubleSided":true}],"textures":[{"sampler":0,"source":0,"name":"faceless"}],"samplers":[{"magFilter":9728,"minFilter":9728,"wrapS":33071,"wrapT":33071}],"images":[{"mimeType":"image/png","uri":"data:image/png;base64,"}],"meshes":[{"primitives":[{"mode":4,"attributes":{"POSITION":0,"NORMAL":1,"TEXCOORD_0":2},"indices":3,"material":0}]},{"primitives":[{"mode":4,"attributes":{"POSITION":4,"NORMAL":5,"TEXCOORD_0":6},"indices":7,"material":0}]},{"primitives":[{"mode":4,"attributes":{"POSITION":8,"NORMAL":9,"TEXCOORD_0":10},"indices":11,"material":0}]},{"primitives":[{"mode":4,"attributes":{"POSITION":12,"NORMAL":13,"TEXCOORD_0":14},"indices":15,"material":0}]},{"primitives":[{"mode":4,"attributes":{"POSITION":16,"NORMAL":17,"TEXCOORD_0":18},"indices":19,"material":0}]},{"primitives":[{"mode":4,"attributes":{"POSITION":20,"NORMAL":21,"TEXCOORD_0":22},"indices":23,"material":0}]}],"animations":[{"name":"idle-loop","samplers":[{"input":24,"output":25,"interpolation":"LINEAR"},{"input":26,"output":27,"interpolation":"LINEAR"},{"input":28,"output":29,"interpolation":"LINEAR"},{"input":30,"output":31,"interpolation":"LINEAR"},{"input":32,"output":33,"interpolation":"LINEAR"}],"channels":[{"sampler":0,"target":{"node":11,"path":"translation"}},{"sampler":1,"target":{"node":6,"path":"rotation"}},{"sampler":2,"target":{"node":6,"path":"scale"}},{"sampler":3,"target":{"node":8,"path":"rotation"}},{"sampler":4,"target":{"node":10,"path":"rotation"}}]},{"name":"walk-loop","samplers":[{"input":34,"output":35,"interpolation":"LINEAR"},{"input":36,"output":37,"interpolation":"LINEAR"},{"input":38,"output":39,"interpolation":"LINEAR"},{"input":40,"output":41,"interpolation":"LINEAR"},{"input":42,"output":43,"interpolation":"LINEAR"},{"input":44,"output":45,"interpolation":"LINEAR"},{"input":46,"output":47,"interpolation":"LINEAR"}],"channels":[{"sampler":0,"target":{"node":2,"path":"rotation"}},{"sampler":1,"target":{"node":4,"path":"rotation"}},{"sampler":2,"target":{"node":11,"path":"rotation"}},{"sampler":3,"target":{"node":11,"path":"translation"}},{"sampler":4,"target":{"node":6,"path":"rotation"}},{"sampler":5,"target":{"node":8,"path":"rotation"}},{"sampler":6,"target":{"node":10,"path":"rotation"}}]}]}